<svg xmlns="http://www.w3.org/2000/svg" xmlns:xlink="http://www.w3.org/1999/xlink" width="206pt" height="82pt" viewBox="0 0 205.5 82"><g id="graph0" class="graph" transform="scale(1 1) rotate(0) translate(4 78)"><title>TrainerFOV</title><g id="node1" class="node"><title>Node1</title><g id="a_node1"><a xlink:title="The TrainerFOV class manages the FOV of all trainers"><polygon fill="#999" stroke="#666" points="129.5 -19 62.5 -19 62.5 0 129.5 0 129.5 -19"/><text x="96" y="-7" font-family="Helvetica,sans-Serif" font-size="10" text-anchor="middle">TrainerFOV</text></a></g></g><g id="node2" class="node"><title>Node2</title><g id="a_node2"><a><polygon fill="#fff" stroke="#bfbfbf" points="84 -74 0 -74 0 -55 84 -55 84 -74"/><text x="42" y="-62" font-family="Helvetica,sans-Serif" font-size="10" text-anchor="middle">MonoBehaviour</text></a></g></g><g id="edge1" class="edge"><title>Node2-&gt;Node1</title><path fill="none" stroke="#63b8ff" d="M59.04,-46.78C68.26,-37.72 79.29,-26.9 86.89,-19.44"/><polygon fill="#63b8ff" stroke="#63b8ff" points="56.68 -44.19 52 -53.69 61.59 -49.18 56.68 -44.19"/></g><g id="node3" class="node"><title>Node3</title><g id="a_node3"><a target="_top" xlink:href="interface_i_player_triggerable.html"><polygon fill="#fff" stroke="#bfbfbf" points="197.5 -74 102.5 -74 102.5 -55 197.5 -55 197.5 -74"/><text x="150" y="-62" font-family="Helvetica,sans-Serif" font-size="10" text-anchor="middle">IPlayerTriggerable</text></a></g></g><g id="edge2" class="edge"><title>Node3-&gt;Node1</title><path fill="none" stroke="#63b8ff" d="M132.96,-46.78C123.74,-37.72 112.71,-26.9 105.11,-19.44"/><polygon fill="#63b8ff" stroke="#63b8ff" points="130.41 -49.18 140 -53.69 135.32 -44.19 130.41 -49.18"/></g></g></svg>