<?xml version="1.0" encoding="UTF-8" standalone="no"?>
<!DOCTYPE svg PUBLIC "-//W3C//DTD SVG 1.1//EN"
 "http://www.w3.org/Graphics/SVG/1.1/DTD/svg11.dtd">
<!-- Generated by graphviz version 7.0.4 (20221203.1631)
 -->
<!-- Title: ItemBase Pages: 1 -->
<svg width="178pt" height="137pt"
 viewBox="0.00 0.00 178.00 137.00" xmlns="http://www.w3.org/2000/svg" xmlns:xlink="http://www.w3.org/1999/xlink">
<g id="graph0" class="graph" transform="scale(1 1) rotate(0) translate(4 133)">
<title>ItemBase</title>
<!-- Node1 -->
<g id="node1" class="node">
<title>Node1</title>
<g id="a_node1"><a xlink:title="The ItemBase class manage the basic data for all items">
<polygon fill="#999999" stroke="#666666" points="113.5,-74 54.5,-74 54.5,-55 113.5,-55 113.5,-74"/>
<text text-anchor="middle" x="84" y="-62" font-family="Helvetica,sans-Serif" font-size="10.00">ItemBase</text>
</a>
</g>
</g>
<!-- Node3 -->
<g id="node3" class="node">
<title>Node3</title>
<g id="a_node3"><a xlink:href="class_pokeball_item.html" target="_top" xlink:title="The PokeballItem manages all pokeball&#45;related logic">
<polygon fill="white" stroke="#666666" points="74,-19 0,-19 0,0 74,0 74,-19"/>
<text text-anchor="middle" x="37" y="-7" font-family="Helvetica,sans-Serif" font-size="10.00">PokeballItem</text>
</a>
</g>
</g>
<!-- Node1&#45;&gt;Node3 -->
<g id="edge2" class="edge">
<title>Node1&#45;&gt;Node3</title>
<path fill="none" stroke="#63b8ff" d="M68.67,-46.22C60.75,-37.28 51.4,-26.74 44.93,-19.44"/>
<polygon fill="#63b8ff" stroke="#63b8ff" points="65.98,-48.46 75.23,-53.62 71.22,-43.81 65.98,-48.46"/>
</g>
<!-- Node4 -->
<g id="node4" class="node">
<title>Node4</title>
<g id="a_node4"><a xlink:href="class_recovery_item.html" target="_top" xlink:title="The RecoveryItem class manages all the recovery item logic">
<polygon fill="white" stroke="#666666" points="170,-19 92,-19 92,0 170,0 170,-19"/>
<text text-anchor="middle" x="131" y="-7" font-family="Helvetica,sans-Serif" font-size="10.00">RecoveryItem</text>
</a>
</g>
</g>
<!-- Node1&#45;&gt;Node4 -->
<g id="edge3" class="edge">
<title>Node1&#45;&gt;Node4</title>
<path fill="none" stroke="#63b8ff" d="M99.33,-46.22C107.25,-37.28 116.6,-26.74 123.07,-19.44"/>
<polygon fill="#63b8ff" stroke="#63b8ff" points="96.78,-43.81 92.77,-53.62 102.02,-48.46 96.78,-43.81"/>
</g>
<!-- Node2 -->
<g id="node2" class="node">
<title>Node2</title>
<g id="a_node2"><a xlink:title=" ">
<polygon fill="white" stroke="#bfbfbf" points="128.5,-129 39.5,-129 39.5,-110 128.5,-110 128.5,-129"/>
<text text-anchor="middle" x="84" y="-117" font-family="Helvetica,sans-Serif" font-size="10.00">ScriptableObject</text>
</a>
</g>
</g>
<!-- Node2&#45;&gt;Node1 -->
<g id="edge1" class="edge">
<title>Node2&#45;&gt;Node1</title>
<path fill="none" stroke="#63b8ff" d="M84,-98.35C84,-90.1 84,-80.97 84,-74.44"/>
<polygon fill="#63b8ff" stroke="#63b8ff" points="80.5,-98.23 84,-108.23 87.5,-98.23 80.5,-98.23"/>
</g>
</g>
</svg>
