<svg xmlns="http://www.w3.org/2000/svg" xmlns:xlink="http://www.w3.org/1999/xlink" width="178pt" height="82pt" viewBox="0 0 178 82"><g id="graph0" class="graph" transform="scale(1 1) rotate(0) translate(4 78)"><title>NPCController</title><g id="node1" class="node"><title>Node1</title><g id="a_node1"><a xlink:title="The NPCController class manages all NPC-related logic"><polygon fill="#999" stroke="#666" points="129 -19 49 -19 49 0 129 0 129 -19"/><text x="89" y="-7" font-family="Helvetica,sans-Serif" font-size="10" text-anchor="middle">NPCController</text></a></g></g><g id="node2" class="node"><title>Node2</title><g id="a_node2"><a><polygon fill="#fff" stroke="#bfbfbf" points="84 -74 0 -74 0 -55 84 -55 84 -74"/><text x="42" y="-62" font-family="Helvetica,sans-Serif" font-size="10" text-anchor="middle">MonoBehaviour</text></a></g></g><g id="edge1" class="edge"><title>Node2-&gt;Node1</title><path fill="none" stroke="#63b8ff" d="M57.33,-46.22C65.25,-37.28 74.6,-26.74 81.07,-19.44"/><polygon fill="#63b8ff" stroke="#63b8ff" points="54.78 -43.81 50.77 -53.62 60.02 -48.46 54.78 -43.81"/></g><g id="node3" class="node"><title>Node3</title><g id="a_node3"><a target="_top" xlink:href="interface_interactable.html"><polygon fill="#fff" stroke="#bfbfbf" points="170 -74 102 -74 102 -55 170 -55 170 -74"/><text x="136" y="-62" font-family="Helvetica,sans-Serif" font-size="10" text-anchor="middle">Interactable</text></a></g></g><g id="edge2" class="edge"><title>Node3-&gt;Node1</title><path fill="none" stroke="#63b8ff" d="M120.67,-46.22C112.75,-37.28 103.4,-26.74 96.93,-19.44"/><polygon fill="#63b8ff" stroke="#63b8ff" points="117.98 -48.46 127.23 -53.62 123.22 -43.81 117.98 -48.46"/></g></g></svg>