<?xml version="1.0" encoding="UTF-8" standalone="no"?>
<!DOCTYPE svg PUBLIC "-//W3C//DTD SVG 1.1//EN"
 "http://www.w3.org/Graphics/SVG/1.1/DTD/svg11.dtd">
<!-- Generated by graphviz version 7.0.4 (20221203.1631)
 -->
<!-- Title: TrainerController Pages: 1 -->
<svg width="252pt" height="82pt"
 viewBox="0.00 0.00 251.50 82.00" xmlns="http://www.w3.org/2000/svg" xmlns:xlink="http://www.w3.org/1999/xlink">
<g id="graph0" class="graph" transform="scale(1 1) rotate(0) translate(4 78)">
<title>TrainerController</title>
<!-- Node1 -->
<g id="node1" class="node">
<title>Node1</title>
<g id="a_node1"><a xlink:title="The TrainerController class manages all trainer&#45;related logic">
<polygon fill="#999999" stroke="#666666" points="180.5,-19 91.5,-19 91.5,0 180.5,0 180.5,-19"/>
<text text-anchor="middle" x="136" y="-7" font-family="Helvetica,sans-Serif" font-size="10.00">TrainerController</text>
</a>
</g>
</g>
<!-- Node2 -->
<g id="node2" class="node">
<title>Node2</title>
<g id="a_node2"><a xlink:title=" ">
<polygon fill="white" stroke="#bfbfbf" points="84,-74 0,-74 0,-55 84,-55 84,-74"/>
<text text-anchor="middle" x="42" y="-62" font-family="Helvetica,sans-Serif" font-size="10.00">MonoBehaviour</text>
</a>
</g>
</g>
<!-- Node2&#45;&gt;Node1 -->
<g id="edge1" class="edge">
<title>Node2&#45;&gt;Node1</title>
<path fill="none" stroke="#63b8ff" d="M67.72,-49C84.54,-39.52 105.97,-27.43 120.29,-19.36"/>
<polygon fill="#63b8ff" stroke="#63b8ff" points="66.26,-45.81 59.26,-53.77 69.69,-51.9 66.26,-45.81"/>
</g>
<!-- Node3 -->
<g id="node3" class="node">
<title>Node3</title>
<g id="a_node3"><a xlink:href="interface_interactable.html" target="_top" xlink:title=" ">
<polygon fill="white" stroke="#bfbfbf" points="170,-74 102,-74 102,-55 170,-55 170,-74"/>
<text text-anchor="middle" x="136" y="-62" font-family="Helvetica,sans-Serif" font-size="10.00">Interactable</text>
</a>
</g>
</g>
<!-- Node3&#45;&gt;Node1 -->
<g id="edge2" class="edge">
<title>Node3&#45;&gt;Node1</title>
<path fill="none" stroke="#63b8ff" d="M136,-43.35C136,-35.1 136,-25.97 136,-19.44"/>
<polygon fill="#63b8ff" stroke="#63b8ff" points="132.5,-43.23 136,-53.23 139.5,-43.23 132.5,-43.23"/>
</g>
<!-- Node4 -->
<g id="node4" class="node">
<title>Node4</title>
<g id="a_node4"><a xlink:href="interface_i_savable.html" target="_top" xlink:title=" ">
<polygon fill="white" stroke="#bfbfbf" points="243.5,-74 188.5,-74 188.5,-55 243.5,-55 243.5,-74"/>
<text text-anchor="middle" x="216" y="-62" font-family="Helvetica,sans-Serif" font-size="10.00">ISavable</text>
</a>
</g>
</g>
<!-- Node4&#45;&gt;Node1 -->
<g id="edge3" class="edge">
<title>Node4&#45;&gt;Node1</title>
<path fill="none" stroke="#63b8ff" d="M192.89,-48.19C178.77,-38.84 161.22,-27.21 149.37,-19.36"/>
<polygon fill="#63b8ff" stroke="#63b8ff" points="190.9,-51.07 201.17,-53.67 194.76,-45.23 190.9,-51.07"/>
</g>
</g>
</svg>
