<svg xmlns="http://www.w3.org/2000/svg" xmlns:xlink="http://www.w3.org/1999/xlink" width="178pt" height="137pt" viewBox="0 0 178 137"><g id="graph0" class="graph" transform="scale(1 1) rotate(0) translate(4 133)"><title>ItemBase</title><g id="node1" class="node"><title>Node1</title><g id="a_node1"><a xlink:title="The ItemBase class manage the basic data for all items"><polygon fill="#999" stroke="#666" points="113.5 -74 54.5 -74 54.5 -55 113.5 -55 113.5 -74"/><text x="84" y="-62" font-family="Helvetica,sans-Serif" font-size="10" text-anchor="middle">ItemBase</text></a></g></g><g id="node3" class="node"><title>Node3</title><g id="a_node3"><a target="_top" xlink:href="class_pokeball_item.html" xlink:title="The PokeballItem manages all pokeball-related logic"><polygon fill="#fff" stroke="#666" points="74 -19 0 -19 0 0 74 0 74 -19"/><text x="37" y="-7" font-family="Helvetica,sans-Serif" font-size="10" text-anchor="middle">PokeballItem</text></a></g></g><g id="edge2" class="edge"><title>Node1-&gt;Node3</title><path fill="none" stroke="#63b8ff" d="M68.67,-46.22C60.75,-37.28 51.4,-26.74 44.93,-19.44"/><polygon fill="#63b8ff" stroke="#63b8ff" points="65.98 -48.46 75.23 -53.62 71.22 -43.81 65.98 -48.46"/></g><g id="node4" class="node"><title>Node4</title><g id="a_node4"><a target="_top" xlink:href="class_recovery_item.html" xlink:title="The RecoveryItem class manages all the recovery item logic"><polygon fill="#fff" stroke="#666" points="170 -19 92 -19 92 0 170 0 170 -19"/><text x="131" y="-7" font-family="Helvetica,sans-Serif" font-size="10" text-anchor="middle">RecoveryItem</text></a></g></g><g id="edge3" class="edge"><title>Node1-&gt;Node4</title><path fill="none" stroke="#63b8ff" d="M99.33,-46.22C107.25,-37.28 116.6,-26.74 123.07,-19.44"/><polygon fill="#63b8ff" stroke="#63b8ff" points="96.78 -43.81 92.77 -53.62 102.02 -48.46 96.78 -43.81"/></g><g id="node2" class="node"><title>Node2</title><g id="a_node2"><a><polygon fill="#fff" stroke="#bfbfbf" points="128.5 -129 39.5 -129 39.5 -110 128.5 -110 128.5 -129"/><text x="84" y="-117" font-family="Helvetica,sans-Serif" font-size="10" text-anchor="middle">ScriptableObject</text></a></g></g><g id="edge1" class="edge"><title>Node2-&gt;Node1</title><path fill="none" stroke="#63b8ff" d="M84,-98.35C84,-90.1 84,-80.97 84,-74.44"/><polygon fill="#63b8ff" stroke="#63b8ff" points="80.5 -98.23 84 -108.23 87.5 -98.23 80.5 -98.23"/></g></g></svg>