<?xml version="1.0" encoding="UTF-8" standalone="no"?>
<!DOCTYPE svg PUBLIC "-//W3C//DTD SVG 1.1//EN"
 "http://www.w3.org/Graphics/SVG/1.1/DTD/svg11.dtd">
<!-- Generated by graphviz version 7.0.4 (20221203.1631)
 -->
<!-- Title: PlayerController Pages: 1 -->
<svg width="166pt" height="82pt"
 viewBox="0.00 0.00 165.50 82.00" xmlns="http://www.w3.org/2000/svg" xmlns:xlink="http://www.w3.org/1999/xlink">
<g id="graph0" class="graph" transform="scale(1 1) rotate(0) translate(4 78)">
<title>PlayerController</title>
<!-- Node1 -->
<g id="node1" class="node">
<title>Node1</title>
<g id="a_node1"><a xlink:title="The PlayerController manages all player&#45;related logic">
<polygon fill="#999999" stroke="#666666" points="129,-19 43,-19 43,0 129,0 129,-19"/>
<text text-anchor="middle" x="86" y="-7" font-family="Helvetica,sans-Serif" font-size="10.00">PlayerController</text>
</a>
</g>
</g>
<!-- Node2 -->
<g id="node2" class="node">
<title>Node2</title>
<g id="a_node2"><a xlink:title=" ">
<polygon fill="white" stroke="#bfbfbf" points="84,-74 0,-74 0,-55 84,-55 84,-74"/>
<text text-anchor="middle" x="42" y="-62" font-family="Helvetica,sans-Serif" font-size="10.00">MonoBehaviour</text>
</a>
</g>
</g>
<!-- Node2&#45;&gt;Node1 -->
<g id="edge1" class="edge">
<title>Node2&#45;&gt;Node1</title>
<path fill="none" stroke="#63b8ff" d="M56.58,-45.93C63.95,-37.06 72.58,-26.67 78.58,-19.44"/>
<polygon fill="#63b8ff" stroke="#63b8ff" points="53.93,-43.65 50.23,-53.58 59.31,-48.13 53.93,-43.65"/>
</g>
<!-- Node3 -->
<g id="node3" class="node">
<title>Node3</title>
<g id="a_node3"><a xlink:href="interface_i_savable.html" target="_top" xlink:title=" ">
<polygon fill="white" stroke="#bfbfbf" points="157.5,-74 102.5,-74 102.5,-55 157.5,-55 157.5,-74"/>
<text text-anchor="middle" x="130" y="-62" font-family="Helvetica,sans-Serif" font-size="10.00">ISavable</text>
</a>
</g>
</g>
<!-- Node3&#45;&gt;Node1 -->
<g id="edge2" class="edge">
<title>Node3&#45;&gt;Node1</title>
<path fill="none" stroke="#63b8ff" d="M115.42,-45.93C108.05,-37.06 99.42,-26.67 93.42,-19.44"/>
<polygon fill="#63b8ff" stroke="#63b8ff" points="112.69,-48.13 121.77,-53.58 118.07,-43.65 112.69,-48.13"/>
</g>
</g>
</svg>
