<svg xmlns="http://www.w3.org/2000/svg" xmlns:xlink="http://www.w3.org/1999/xlink" width="97pt" height="137pt" viewBox="0 0 97 137"><g id="graph0" class="graph" transform="scale(1 1) rotate(0) translate(4 133)"><title>PokeballItem</title><g id="node1" class="node"><title>Node1</title><g id="a_node1"><a xlink:title="The PokeballItem manages all pokeball-related logic"><polygon fill="#999" stroke="#666" points="81.5 -19 7.5 -19 7.5 0 81.5 0 81.5 -19"/><text x="44.5" y="-7" font-family="Helvetica,sans-Serif" font-size="10" text-anchor="middle">PokeballItem</text></a></g></g><g id="node2" class="node"><title>Node2</title><g id="a_node2"><a target="_top" xlink:href="class_item_base.html" xlink:title="The ItemBase class manage the basic data for all items"><polygon fill="#fff" stroke="#666" points="74 -74 15 -74 15 -55 74 -55 74 -74"/><text x="44.5" y="-62" font-family="Helvetica,sans-Serif" font-size="10" text-anchor="middle">ItemBase</text></a></g></g><g id="edge1" class="edge"><title>Node2-&gt;Node1</title><path fill="none" stroke="#63b8ff" d="M44.5,-43.35C44.5,-35.1 44.5,-25.97 44.5,-19.44"/><polygon fill="#63b8ff" stroke="#63b8ff" points="41 -43.23 44.5 -53.23 48 -43.23 41 -43.23"/></g><g id="node3" class="node"><title>Node3</title><g id="a_node3"><a><polygon fill="#fff" stroke="#bfbfbf" points="89 -129 0 -129 0 -110 89 -110 89 -129"/><text x="44.5" y="-117" font-family="Helvetica,sans-Serif" font-size="10" text-anchor="middle">ScriptableObject</text></a></g></g><g id="edge2" class="edge"><title>Node3-&gt;Node2</title><path fill="none" stroke="#63b8ff" d="M44.5,-98.35C44.5,-90.1 44.5,-80.97 44.5,-74.44"/><polygon fill="#63b8ff" stroke="#63b8ff" points="41 -98.23 44.5 -108.23 48 -98.23 41 -98.23"/></g></g></svg>