<svg xmlns="http://www.w3.org/2000/svg" xmlns:xlink="http://www.w3.org/1999/xlink" width="166pt" height="82pt" viewBox="0 0 165.5 82"><g id="graph0" class="graph" transform="scale(1 1) rotate(0) translate(4 78)"><title>PlayerController</title><g id="node1" class="node"><title>Node1</title><g id="a_node1"><a xlink:title="The PlayerController manages all player-related logic"><polygon fill="#999" stroke="#666" points="129 -19 43 -19 43 0 129 0 129 -19"/><text x="86" y="-7" font-family="Helvetica,sans-Serif" font-size="10" text-anchor="middle">PlayerController</text></a></g></g><g id="node2" class="node"><title>Node2</title><g id="a_node2"><a><polygon fill="#fff" stroke="#bfbfbf" points="84 -74 0 -74 0 -55 84 -55 84 -74"/><text x="42" y="-62" font-family="Helvetica,sans-Serif" font-size="10" text-anchor="middle">MonoBehaviour</text></a></g></g><g id="edge1" class="edge"><title>Node2-&gt;Node1</title><path fill="none" stroke="#63b8ff" d="M56.58,-45.93C63.95,-37.06 72.58,-26.67 78.58,-19.44"/><polygon fill="#63b8ff" stroke="#63b8ff" points="53.93 -43.65 50.23 -53.58 59.31 -48.13 53.93 -43.65"/></g><g id="node3" class="node"><title>Node3</title><g id="a_node3"><a target="_top" xlink:href="interface_i_savable.html"><polygon fill="#fff" stroke="#bfbfbf" points="157.5 -74 102.5 -74 102.5 -55 157.5 -55 157.5 -74"/><text x="130" y="-62" font-family="Helvetica,sans-Serif" font-size="10" text-anchor="middle">ISavable</text></a></g></g><g id="edge2" class="edge"><title>Node3-&gt;Node1</title><path fill="none" stroke="#63b8ff" d="M115.42,-45.93C108.05,-37.06 99.42,-26.67 93.42,-19.44"/><polygon fill="#63b8ff" stroke="#63b8ff" points="112.69 -48.13 121.77 -53.58 118.07 -43.65 112.69 -48.13"/></g></g></svg>