<svg xmlns="http://www.w3.org/2000/svg" xmlns:xlink="http://www.w3.org/1999/xlink" width="875pt" height="94pt" viewBox="0 0 875 94"><g id="graph0" class="graph" transform="scale(1 1) rotate(0) translate(4 90)"><title>Assets/Scripts</title><g id="clust1" class="cluster"><title>clusterdir_84bbf7b3c7f28a5a18725745e1505219</title><g id="a_clust1"><a target="_top" xlink:href="dir_84bbf7b3c7f28a5a18725745e1505219.html" xlink:title="Assets"><polygon fill="#edf0f7" stroke="#404040" stroke-dasharray="5 2" points="8 -8 8 -78 859 -78 859 -8 8 -8"/><text x="433.5" y="-66" font-family="Helvetica,sans-Serif" font-size="10" text-anchor="middle">Assets</text></a></g></g><g id="clust2" class="cluster"><title>clusterdir_f13b41af88cf68434578284aaf699e39</title><g id="a_clust2"><a target="_top" xlink:href="dir_f13b41af88cf68434578284aaf699e39.html"><polygon fill="#edf0f7" stroke="#404040" stroke-width="2" points="16 -16 16 -51 851 -51 851 -16 16 -16"/></a></g></g><g id="node1" class="node"><title>dir_f13b41af88cf68434578284aaf699e39</title><text x="819" y="-31" font-family="Helvetica,sans-Serif" font-size="10" text-anchor="middle">Scripts</text></g><g id="node2" class="node"><title>dir_f2fc48d34082b9daa17ed409733442fb</title><g id="a_node2"><a target="_top" xlink:href="dir_f2fc48d34082b9daa17ed409733442fb.html" xlink:title="Battle"><polygon fill="#a2b4d6" stroke="#404040" points="777 -43 735 -43 735 -24 777 -24 777 -43"/><text x="756" y="-31" font-family="Helvetica,sans-Serif" font-size="10" text-anchor="middle">Battle</text></a></g></g><g id="node3" class="node"><title>dir_bf53d0db9048da6b5c95efa9fb059aa7</title><g id="a_node3"><a target="_top" xlink:href="dir_bf53d0db9048da6b5c95efa9fb059aa7.html" xlink:title="Character"><polygon fill="#a2b4d6" stroke="#404040" points="716.5 -43 657.5 -43 657.5 -24 716.5 -24 716.5 -43"/><text x="687" y="-31" font-family="Helvetica,sans-Serif" font-size="10" text-anchor="middle">Character</text></a></g></g><g id="node4" class="node"><title>dir_7db68f476bd50f9f6d9cf398af037e8e</title><g id="a_node4"><a target="_top" xlink:href="dir_7db68f476bd50f9f6d9cf398af037e8e.html" xlink:title="Core"><polygon fill="#a2b4d6" stroke="#404040" points="639 -43 601 -43 601 -24 639 -24 639 -43"/><text x="620" y="-31" font-family="Helvetica,sans-Serif" font-size="10" text-anchor="middle">Core</text></a></g></g><g id="node5" class="node"><title>dir_aa3b7ab08f4c107d50e2677e19a5d9e6</title><g id="a_node5"><a target="_top" xlink:href="dir_aa3b7ab08f4c107d50e2677e19a5d9e6.html" xlink:title="Data"><polygon fill="#a2b4d6" stroke="#404040" points="583 -43 545 -43 545 -24 583 -24 583 -43"/><text x="564" y="-31" font-family="Helvetica,sans-Serif" font-size="10" text-anchor="middle">Data</text></a></g></g><g id="node6" class="node"><title>dir_cef372f8bbddab5569d1e893868c5dc3</title><g id="a_node6"><a target="_top" xlink:href="dir_cef372f8bbddab5569d1e893868c5dc3.html" xlink:title="Gameplay"><polygon fill="#a2b4d6" stroke="#404040" points="526.5 -43 465.5 -43 465.5 -24 526.5 -24 526.5 -43"/><text x="496" y="-31" font-family="Helvetica,sans-Serif" font-size="10" text-anchor="middle">Gameplay</text></a></g></g><g id="node7" class="node"><title>dir_7ed88aacee639700c1de979c127343ab</title><g id="a_node7"><a target="_top" xlink:href="dir_7ed88aacee639700c1de979c127343ab.html" xlink:title="Inventory"><polygon fill="#a2b4d6" stroke="#404040" points="447.5 -43 390.5 -43 390.5 -24 447.5 -24 447.5 -43"/><text x="419" y="-31" font-family="Helvetica,sans-Serif" font-size="10" text-anchor="middle">Inventory</text></a></g></g><g id="node8" class="node"><title>dir_f75a73277280d06ed4d6db32d7d50f26</title><g id="a_node8"><a target="_top" xlink:href="dir_f75a73277280d06ed4d6db32d7d50f26.html" xlink:title="Move"><polygon fill="#a2b4d6" stroke="#404040" points="372.5 -43 331.5 -43 331.5 -24 372.5 -24 372.5 -43"/><text x="352" y="-31" font-family="Helvetica,sans-Serif" font-size="10" text-anchor="middle">Move</text></a></g></g><g id="node9" class="node"><title>dir_35d47195014e5cb560e509ee6cc642d8</title><g id="a_node9"><a target="_top" xlink:href="dir_35d47195014e5cb560e509ee6cc642d8.html" xlink:title="Pokemon"><polygon fill="#a2b4d6" stroke="#404040" points="313 -43 255 -43 255 -24 313 -24 313 -43"/><text x="284" y="-31" font-family="Helvetica,sans-Serif" font-size="10" text-anchor="middle">Pokemon</text></a></g></g><g id="node10" class="node"><title>dir_59d1ec4018db63810991837a55ceb3b2</title><g id="a_node10"><a target="_top" xlink:href="dir_59d1ec4018db63810991837a55ceb3b2.html" xlink:title="Saving"><polygon fill="#a2b4d6" stroke="#404040" points="236.5 -43 189.5 -43 189.5 -24 236.5 -24 236.5 -43"/><text x="213" y="-31" font-family="Helvetica,sans-Serif" font-size="10" text-anchor="middle">Saving</text></a></g></g><g id="node11" class="node"><title>dir_3e5ecfec803c1831b8558be38955a579</title><g id="a_node11"><a target="_top" xlink:href="dir_3e5ecfec803c1831b8558be38955a579.html" xlink:title="Scene"><polygon fill="#a2b4d6" stroke="#404040" points="171 -43 127 -43 127 -24 171 -24 171 -43"/><text x="149" y="-31" font-family="Helvetica,sans-Serif" font-size="10" text-anchor="middle">Scene</text></a></g></g><g id="node12" class="node"><title>dir_4ae35e2d0d203079e26c83ccaec95743</title><g id="a_node12"><a target="_top" xlink:href="dir_4ae35e2d0d203079e26c83ccaec95743.html" xlink:title="UI"><polygon fill="#a2b4d6" stroke="#404040" points="108.5 -43 79.5 -43 79.5 -24 108.5 -24 108.5 -43"/><text x="94" y="-31" font-family="Helvetica,sans-Serif" font-size="10" text-anchor="middle">UI</text></a></g></g><g id="node13" class="node"><title>dir_d59928a8991e409486b76da4b2a9995a</title><g id="a_node13"><a target="_top" xlink:href="dir_d59928a8991e409486b76da4b2a9995a.html" xlink:title="Utils"><polygon fill="#a2b4d6" stroke="#404040" points="61.5 -43 24.5 -43 24.5 -24 61.5 -24 61.5 -43"/><text x="43" y="-31" font-family="Helvetica,sans-Serif" font-size="10" text-anchor="middle">Utils</text></a></g></g></g></svg>