<svg xmlns="http://www.w3.org/2000/svg" xmlns:xlink="http://www.w3.org/1999/xlink" id="main" onload="init(evt)" version="1.1" xml:space="preserve"><style type="text/css">.edge:hover path{stroke:red}.edge:hover polygon{stroke:red;fill:red}</style><script type="text/javascript"><![CDATA[
var edges = document.getElementsByTagName('g');
if (edges && edges.length) {
  for (var i=0;i<edges.length;i++) {
    if (edges[i].id.substr(0,4)=='edge') {
      edges[i].setAttribute('class','edge');
    }
  }
}
]]></script><defs><circle id="rim" cx="0" cy="0" r="7"/><circle id="rim2" cx="0" cy="0" r="3.5"/><g id="zoomPlus"><use fill="#404040" xlink:href="#rim"><set attributeName="fill" begin="zoomplus.mouseover" end="zoomplus.mouseout" to="#808080"/></use><path fill="none" stroke="#fff" stroke-width="1.5" d="M-4,0h8M0,-4v8" pointer-events="none"/></g><g id="zoomMin"><use fill="#404040" xlink:href="#rim"><set attributeName="fill" begin="zoomminus.mouseover" end="zoomminus.mouseout" to="#808080"/></use><path fill="none" stroke="#fff" stroke-width="1.5" d="M-4,0h8" pointer-events="none"/></g><g id="dirArrow"><path fill="none" stroke="#fff" stroke-width="1.5" d="M0,-3.0v7 M-2.5,-0.5L0,-3.0L2.5,-0.5"/></g><g id="resetDef"><use fill="#404040" xlink:href="#rim2"><set attributeName="fill" begin="reset.mouseover" end="reset.mouseout" to="#808080"/></use></g></defs><script type="text/javascript">var viewWidth = 875; var viewHeight = 94; var sectionId = &apos;dynsection-0&apos;;</script><script xlink:href="svgpan.js"/><svg id="graph" class="graph"><g id="viewport"><title>Assets/Scripts</title><g id="clust1" class="cluster"><title>clusterdir_84bbf7b3c7f28a5a18725745e1505219</title><g id="a_clust1"><a target="_top" xlink:href="dir_84bbf7b3c7f28a5a18725745e1505219.html" xlink:title="Assets"><polygon fill="#edf0f7" stroke="#404040" stroke-dasharray="5 2" points="8 -8 8 -78 859 -78 859 -8 8 -8"/><text x="433.5" y="-66" font-family="Helvetica,sans-Serif" font-size="10" text-anchor="middle">Assets</text></a></g></g><g id="clust2" class="cluster"><title>clusterdir_f13b41af88cf68434578284aaf699e39</title><g id="a_clust2"><a target="_top" xlink:href="dir_f13b41af88cf68434578284aaf699e39.html"><polygon fill="#edf0f7" stroke="#404040" stroke-width="2" points="16 -16 16 -51 851 -51 851 -16 16 -16"/></a></g></g><g id="node1" class="node"><title>dir_f13b41af88cf68434578284aaf699e39</title><text x="819" y="-31" font-family="Helvetica,sans-Serif" font-size="10" text-anchor="middle">Scripts</text></g><g id="node2" class="node"><title>dir_f2fc48d34082b9daa17ed409733442fb</title><g id="a_node2"><a target="_top" xlink:href="dir_f2fc48d34082b9daa17ed409733442fb.html" xlink:title="Battle"><polygon fill="#a2b4d6" stroke="#404040" points="777 -43 735 -43 735 -24 777 -24 777 -43"/><text x="756" y="-31" font-family="Helvetica,sans-Serif" font-size="10" text-anchor="middle">Battle</text></a></g></g><g id="node3" class="node"><title>dir_bf53d0db9048da6b5c95efa9fb059aa7</title><g id="a_node3"><a target="_top" xlink:href="dir_bf53d0db9048da6b5c95efa9fb059aa7.html" xlink:title="Character"><polygon fill="#a2b4d6" stroke="#404040" points="716.5 -43 657.5 -43 657.5 -24 716.5 -24 716.5 -43"/><text x="687" y="-31" font-family="Helvetica,sans-Serif" font-size="10" text-anchor="middle">Character</text></a></g></g><g id="node4" class="node"><title>dir_7db68f476bd50f9f6d9cf398af037e8e</title><g id="a_node4"><a target="_top" xlink:href="dir_7db68f476bd50f9f6d9cf398af037e8e.html" xlink:title="Core"><polygon fill="#a2b4d6" stroke="#404040" points="639 -43 601 -43 601 -24 639 -24 639 -43"/><text x="620" y="-31" font-family="Helvetica,sans-Serif" font-size="10" text-anchor="middle">Core</text></a></g></g><g id="node5" class="node"><title>dir_aa3b7ab08f4c107d50e2677e19a5d9e6</title><g id="a_node5"><a target="_top" xlink:href="dir_aa3b7ab08f4c107d50e2677e19a5d9e6.html" xlink:title="Data"><polygon fill="#a2b4d6" stroke="#404040" points="583 -43 545 -43 545 -24 583 -24 583 -43"/><text x="564" y="-31" font-family="Helvetica,sans-Serif" font-size="10" text-anchor="middle">Data</text></a></g></g><g id="node6" class="node"><title>dir_cef372f8bbddab5569d1e893868c5dc3</title><g id="a_node6"><a target="_top" xlink:href="dir_cef372f8bbddab5569d1e893868c5dc3.html" xlink:title="Gameplay"><polygon fill="#a2b4d6" stroke="#404040" points="526.5 -43 465.5 -43 465.5 -24 526.5 -24 526.5 -43"/><text x="496" y="-31" font-family="Helvetica,sans-Serif" font-size="10" text-anchor="middle">Gameplay</text></a></g></g><g id="node7" class="node"><title>dir_7ed88aacee639700c1de979c127343ab</title><g id="a_node7"><a target="_top" xlink:href="dir_7ed88aacee639700c1de979c127343ab.html" xlink:title="Inventory"><polygon fill="#a2b4d6" stroke="#404040" points="447.5 -43 390.5 -43 390.5 -24 447.5 -24 447.5 -43"/><text x="419" y="-31" font-family="Helvetica,sans-Serif" font-size="10" text-anchor="middle">Inventory</text></a></g></g><g id="node8" class="node"><title>dir_f75a73277280d06ed4d6db32d7d50f26</title><g id="a_node8"><a target="_top" xlink:href="dir_f75a73277280d06ed4d6db32d7d50f26.html" xlink:title="Move"><polygon fill="#a2b4d6" stroke="#404040" points="372.5 -43 331.5 -43 331.5 -24 372.5 -24 372.5 -43"/><text x="352" y="-31" font-family="Helvetica,sans-Serif" font-size="10" text-anchor="middle">Move</text></a></g></g><g id="node9" class="node"><title>dir_35d47195014e5cb560e509ee6cc642d8</title><g id="a_node9"><a target="_top" xlink:href="dir_35d47195014e5cb560e509ee6cc642d8.html" xlink:title="Pokemon"><polygon fill="#a2b4d6" stroke="#404040" points="313 -43 255 -43 255 -24 313 -24 313 -43"/><text x="284" y="-31" font-family="Helvetica,sans-Serif" font-size="10" text-anchor="middle">Pokemon</text></a></g></g><g id="node10" class="node"><title>dir_59d1ec4018db63810991837a55ceb3b2</title><g id="a_node10"><a target="_top" xlink:href="dir_59d1ec4018db63810991837a55ceb3b2.html" xlink:title="Saving"><polygon fill="#a2b4d6" stroke="#404040" points="236.5 -43 189.5 -43 189.5 -24 236.5 -24 236.5 -43"/><text x="213" y="-31" font-family="Helvetica,sans-Serif" font-size="10" text-anchor="middle">Saving</text></a></g></g><g id="node11" class="node"><title>dir_3e5ecfec803c1831b8558be38955a579</title><g id="a_node11"><a target="_top" xlink:href="dir_3e5ecfec803c1831b8558be38955a579.html" xlink:title="Scene"><polygon fill="#a2b4d6" stroke="#404040" points="171 -43 127 -43 127 -24 171 -24 171 -43"/><text x="149" y="-31" font-family="Helvetica,sans-Serif" font-size="10" text-anchor="middle">Scene</text></a></g></g><g id="node12" class="node"><title>dir_4ae35e2d0d203079e26c83ccaec95743</title><g id="a_node12"><a target="_top" xlink:href="dir_4ae35e2d0d203079e26c83ccaec95743.html" xlink:title="UI"><polygon fill="#a2b4d6" stroke="#404040" points="108.5 -43 79.5 -43 79.5 -24 108.5 -24 108.5 -43"/><text x="94" y="-31" font-family="Helvetica,sans-Serif" font-size="10" text-anchor="middle">UI</text></a></g></g><g id="node13" class="node"><title>dir_d59928a8991e409486b76da4b2a9995a</title><g id="a_node13"><a target="_top" xlink:href="dir_d59928a8991e409486b76da4b2a9995a.html" xlink:title="Utils"><polygon fill="#a2b4d6" stroke="#404040" points="61.5 -43 24.5 -43 24.5 -24 61.5 -24 61.5 -43"/><text x="43" y="-31" font-family="Helvetica,sans-Serif" font-size="10" text-anchor="middle">Utils</text></a></g></g></g></svg><g id="navigator" fill="#404254" transform="translate(0 0)"><rect width="60" height="60" x="0" y="0" fill="#f2f5e9" fill-opacity=".5" stroke="#606060" stroke-width=".5"/><use id="zoomplus" x="17" y="9" onmousedown="handleZoom(evt,'in')" xlink:href="#zoomPlus"/><use id="zoomminus" x="42" y="9" onmousedown="handleZoom(evt,'out')" xlink:href="#zoomMin"/><use id="reset" x="30" y="36" onmousedown="handleReset()" xlink:href="#resetDef"/><g id="arrowUp" onmousedown="handlePan(0,-1)" transform="translate(30 24)" xlink:href="#dirArrow"><use fill="#404040" xlink:href="#rim"><set attributeName="fill" begin="arrowUp.mouseover" end="arrowUp.mouseout" to="#808080"/></use><path fill="none" stroke="#fff" stroke-width="1.5" d="M0,-3.0v7 M-2.5,-0.5L0,-3.0L2.5,-0.5"/></g><g id="arrowRight" onmousedown="handlePan(1,0)" transform="rotate(90) translate(36 -43)" xlink:href="#dirArrow"><use fill="#404040" xlink:href="#rim"><set attributeName="fill" begin="arrowRight.mouseover" end="arrowRight.mouseout" to="#808080"/></use><path fill="none" stroke="#fff" stroke-width="1.5" d="M0,-3.0v7 M-2.5,-0.5L0,-3.0L2.5,-0.5"/></g><g id="arrowDown" onmousedown="handlePan(0,1)" transform="rotate(180) translate(-30 -48)" xlink:href="#dirArrow"><use fill="#404040" xlink:href="#rim"><set attributeName="fill" begin="arrowDown.mouseover" end="arrowDown.mouseout" to="#808080"/></use><path fill="none" stroke="#fff" stroke-width="1.5" d="M0,-3.0v7 M-2.5,-0.5L0,-3.0L2.5,-0.5"/></g><g id="arrowLeft" onmousedown="handlePan(-1,0)" transform="rotate(270) translate(-36 17)" xlink:href="#dirArrow"><use fill="#404040" xlink:href="#rim"><set attributeName="fill" begin="arrowLeft.mouseover" end="arrowLeft.mouseout" to="#808080"/></use><path fill="none" stroke="#fff" stroke-width="1.5" d="M0,-3.0v7 M-2.5,-0.5L0,-3.0L2.5,-0.5"/></g></g><svg width="100%" height="30" preserveAspectRatio="xMaxYMin meet" viewBox="0 0 15 15"><g id="arrow_out" transform="scale(0.3 0.3)"><a target="_base" xlink:href="dir_f13b41af88cf68434578284aaf699e39_dep_org.svg"><rect id="button" width="38" height="38" x="6" y="6" fill="#f2f5e9" fill-opacity=".5" stroke="#606060" stroke-width="1" rx="5" ry="5"/><path id="arrow" d="M 11.500037,31.436501 C 11.940474,20.09759 22.043105,11.32322 32.158766,21.979434 L 37.068811,17.246167 C 37.068811,17.246167 37.088388,32 37.088388,32 L 22.160133,31.978069 C 22.160133,31.978069 26.997745,27.140456 26.997745,27.140456 C 18.528582,18.264221 13.291696,25.230495 11.500037,31.436501 z" style="fill:#404040"/></a></g></svg></svg>