<svg xmlns="http://www.w3.org/2000/svg" xmlns:xlink="http://www.w3.org/1999/xlink" width="511pt" height="212" viewBox="0 0 511 159"><g id="graph0" class="graph" transform="scale(1 1) rotate(0) translate(4 155)"><title>Graph Legend</title><g id="node1" class="node"><title>Node9</title><g id="a_node1"><a><polygon fill="#999" stroke="#666" points="293 -19 239 -19 239 0 293 0 293 -19"/><text x="266" y="-7" font-family="Helvetica,sans-Serif" font-size="10" text-anchor="middle">Inherited</text></a></g></g><g id="node2" class="node"><title>Node10</title><g id="a_node2"><a xlink:href="url.html"><polygon fill="#fff" stroke="#666" points="66 -85 0 -85 0 -66 66 -66 66 -85"/><text x="33" y="-73" font-family="Helvetica,sans-Serif" font-size="10" text-anchor="middle">PublicBase</text></a></g></g><g id="edge1" class="edge"><title>Node10-&gt;Node9</title><path fill="none" stroke="#63b8ff" d="M76.26,-62.62C123.76,-49.57 198.58,-29.02 238.59,-18.03"/><polygon fill="#63b8ff" stroke="#63b8ff" points="75.57 -59.18 66.86 -65.2 77.43 -65.93 75.57 -59.18"/></g><g id="node3" class="node"><title>Node11</title><g id="a_node3"><a xlink:href="url.html"><polygon fill="#fff0f0" stroke="red" points="63 -151 3 -151 3 -132 63 -132 63 -151"/><text x="33" y="-139" font-family="Helvetica,sans-Serif" font-size="10" text-anchor="middle">Truncated</text></a></g></g><g id="edge2" class="edge"><title>Node11-&gt;Node10</title><path fill="none" stroke="#63b8ff" d="M33,-120.18C33,-108.44 33,-94.27 33,-85.32"/><polygon fill="#63b8ff" stroke="#63b8ff" points="29.5 -120.09 33 -130.09 36.5 -120.09 29.5 -120.09"/></g><g id="node4" class="node"><title>Node13</title><polygon fill="#fff" stroke="#666" points="165.5 -85 84.5 -85 84.5 -66 165.5 -66 165.5 -85"/><text x="125" y="-73" font-family="Helvetica,sans-Serif" font-size="10" text-anchor="middle">ProtectedBase</text></g><g id="edge3" class="edge"><title>Node13-&gt;Node9</title><path fill="none" stroke="#006400" d="M154.88,-60.94C182.54,-48.38 222.86,-30.08 246.56,-19.32"/><polygon fill="#006400" stroke="#006400" points="153.64 -57.66 145.98 -64.98 156.54 -64.03 153.64 -57.66"/></g><g id="node5" class="node"><title>Node14</title><polygon fill="#fff" stroke="#666" points="254 -85 184 -85 184 -66 254 -66 254 -85"/><text x="219" y="-73" font-family="Helvetica,sans-Serif" font-size="10" text-anchor="middle">PrivateBase</text></g><g id="edge4" class="edge"><title>Node14-&gt;Node9</title><path fill="none" stroke="#8b1a1a" d="M232.3,-56.4C241.2,-44.27 252.53,-28.84 259.52,-19.32"/><polygon fill="#8b1a1a" stroke="#8b1a1a" points="229.53 -54.25 226.43 -64.38 235.17 -58.39 229.53 -54.25"/></g><g id="node6" class="node"><title>Node15</title><g id="a_node6"><a><polygon fill="#e0e0e0" stroke="#999" points="355.5 -85 272.5 -85 272.5 -66 355.5 -66 355.5 -85"/><text x="314" y="-73" font-family="Helvetica,sans-Serif" font-size="10" text-anchor="middle">Undocumented</text></a></g></g><g id="edge5" class="edge"><title>Node15-&gt;Node9</title><path fill="none" stroke="#63b8ff" d="M300.42,-56.4C291.33,-44.27 279.76,-28.84 272.62,-19.32"/><polygon fill="#63b8ff" stroke="#63b8ff" points="297.62 -58.49 306.42 -64.39 303.22 -54.29 297.62 -58.49"/></g><g id="node7" class="node"><title>Node16</title><polygon fill="#fff" stroke="#666" points="444.5 -85 373.5 -85 373.5 -66 444.5 -66 444.5 -85"/><text x="409" y="-73" font-family="Helvetica,sans-Serif" font-size="10" text-anchor="middle">Templ&lt; int &gt;</text></g><g id="edge6" class="edge"><title>Node16-&gt;Node9</title><path fill="none" stroke="#63b8ff" d="M378.69,-60.94C350.64,-48.38 309.75,-30.08 285.71,-19.32"/><polygon fill="#63b8ff" stroke="#63b8ff" points="377.18 -64.09 387.73 -64.98 380.04 -57.7 377.18 -64.09"/></g><g id="node8" class="node"><title>Node17</title><polygon fill="#fff" stroke="#666" points="442.5 -151 375.5 -151 375.5 -132 442.5 -132 442.5 -151"/><text x="409" y="-139" font-family="Helvetica,sans-Serif" font-size="10" text-anchor="middle">Templ&lt; T &gt;</text></g><g id="edge7" class="edge"><title>Node17-&gt;Node16</title><path fill="none" stroke="orange" stroke-dasharray="5 2" d="M409,-120.18C409,-108.44 409,-94.27 409,-85.32"/><polygon fill="orange" stroke="orange" points="405.5 -120.09 409 -130.09 412.5 -120.09 405.5 -120.09"/><text x="423.5" y="-106" font-family="Helvetica,sans-Serif" font-size="10" text-anchor="middle">&lt; int &gt;</text></g><g id="node9" class="node"><title>Node18</title><polygon fill="#fff" stroke="#666" points="503 -85 463 -85 463 -66 503 -66 503 -85"/><text x="483" y="-73" font-family="Helvetica,sans-Serif" font-size="10" text-anchor="middle">Used</text></g><g id="edge8" class="edge"><title>Node18-&gt;Node9</title><path fill="none" stroke="#9a32cd" stroke-dasharray="5 2" d="M451.76,-65.29C409.19,-52.73 333.64,-30.45 293.25,-18.54"/><polygon fill="#9a32cd" stroke="#9a32cd" points="450.55 -68.58 461.13 -68.05 452.53 -61.86 450.55 -68.58"/><text x="417.5" y="-40" font-family="Helvetica,sans-Serif" font-size="10" text-anchor="middle">m_usedClass</text></g></g></svg>