<svg xmlns="http://www.w3.org/2000/svg" xmlns:xlink="http://www.w3.org/1999/xlink" width="268pt" height="1664" viewBox="0 0 268 1248"><g id="graph0" class="graph" transform="scale(1 1) rotate(0) translate(4 1244)"><title>Graphical Class Hierarchy</title><g id="node1" class="node"><title>Node0</title><g id="a_node1"><a target="_top" xlink:href="interface_interactable.html"><polygon fill="#fff" stroke="#666" points="81.5 -1230 13.5 -1230 13.5 -1211 81.5 -1211 81.5 -1230"/><text x="47.5" y="-1218" font-family="Helvetica,sans-Serif" font-size="10" text-anchor="middle">Interactable</text></a></g></g><g id="node2" class="node"><title>Node1</title><g id="a_node2"><a target="_top" xlink:href="class_n_p_c_controller.html" xlink:title="The NPCController class manages all NPC-related logic"><polygon fill="#fff" stroke="#666" points="235.5 -1203 155.5 -1203 155.5 -1184 235.5 -1184 235.5 -1203"/><text x="195.5" y="-1191" font-family="Helvetica,sans-Serif" font-size="10" text-anchor="middle">NPCController</text></a></g></g><g id="edge1" class="edge"><title>Node0-&gt;Node1</title><path fill="none" stroke="#63b8ff" d="M93.22,-1212.23C113.01,-1208.57 136.09,-1204.3 155.21,-1200.77"/><polygon fill="#63b8ff" stroke="#63b8ff" points="92.68 -1208.77 83.48 -1214.03 93.95 -1215.65 92.68 -1208.77"/></g><g id="node3" class="node"><title>Node33</title><g id="a_node3"><a target="_top" xlink:href="class_trainer_controller.html" xlink:title="The TrainerController class manages all trainer-related logic"><polygon fill="#fff" stroke="#666" points="240 -1240 151 -1240 151 -1221 240 -1221 240 -1240"/><text x="195.5" y="-1228" font-family="Helvetica,sans-Serif" font-size="10" text-anchor="middle">TrainerController</text></a></g></g><g id="edge2" class="edge"><title>Node0-&gt;Node33</title><path fill="none" stroke="#63b8ff" d="M93.23,-1223.56C111.47,-1224.81 132.49,-1226.25 150.63,-1227.5"/><polygon fill="#63b8ff" stroke="#63b8ff" points="93.72 -1220.09 83.51 -1222.9 93.24 -1227.07 93.72 -1220.09"/></g><g id="node4" class="node"><title>Node22</title><g id="a_node4"><a target="_top" xlink:href="interface_i_player_triggerable.html"><polygon fill="#fff" stroke="#666" points="95 -1074 0 -1074 0 -1055 95 -1055 95 -1074"/><text x="47.5" y="-1062" font-family="Helvetica,sans-Serif" font-size="10" text-anchor="middle">IPlayerTriggerable</text></a></g></g><g id="node5" class="node"><title>Node21</title><g id="a_node5"><a target="_top" xlink:href="class_location_portal.html" xlink:title="The LocationPortal manages all logic for the location portals"><polygon fill="#fff" stroke="#666" points="235 -1129 156 -1129 156 -1110 235 -1110 235 -1129"/><text x="195.5" y="-1117" font-family="Helvetica,sans-Serif" font-size="10" text-anchor="middle">LocationPortal</text></a></g></g><g id="edge3" class="edge"><title>Node22-&gt;Node21</title><path fill="none" stroke="#63b8ff" d="M78.53,-1079.23C93.98,-1086.49 113.26,-1095.05 131,-1101.5 138.97,-1104.4 147.64,-1107.13 155.93,-1109.54"/><polygon fill="#63b8ff" stroke="#63b8ff" points="80.4 -1076.25 69.87 -1075.11 77.39 -1082.57 80.4 -1076.25"/></g><g id="node6" class="node"><title>Node23</title><g id="a_node6"><a target="_top" xlink:href="class_long_grass.html"><polygon fill="#fff" stroke="#666" points="227.5 -1092 163.5 -1092 163.5 -1073 227.5 -1073 227.5 -1092"/><text x="195.5" y="-1080" font-family="Helvetica,sans-Serif" font-size="10" text-anchor="middle">LongGrass</text></a></g></g><g id="edge4" class="edge"><title>Node22-&gt;Node23</title><path fill="none" stroke="#63b8ff" d="M106.67,-1071.67C125.99,-1074.05 146.76,-1076.61 163.25,-1078.65"/><polygon fill="#63b8ff" stroke="#63b8ff" points="107.35 -1068.23 97 -1070.48 106.5 -1075.18 107.35 -1068.23"/></g><g id="node7" class="node"><title>Node24</title><g id="a_node7"><a target="_top" xlink:href="class_portal.html" xlink:title="The Portal class manages all portal-related logic"><polygon fill="#fff" stroke="#666" points="216.5 -1055 174.5 -1055 174.5 -1036 216.5 -1036 216.5 -1055"/><text x="195.5" y="-1043" font-family="Helvetica,sans-Serif" font-size="10" text-anchor="middle">Portal</text></a></g></g><g id="edge5" class="edge"><title>Node22-&gt;Node24</title><path fill="none" stroke="#63b8ff" d="M106.62,-1056.94C130.48,-1053.83 156.55,-1050.44 174.05,-1048.16"/><polygon fill="#63b8ff" stroke="#63b8ff" points="106.46 -1053.43 97 -1058.19 107.37 -1060.37 106.46 -1053.43"/></g><g id="node8" class="node"><title>Node25</title><g id="a_node8"><a target="_top" xlink:href="class_trainer_f_o_v.html" xlink:title="The TrainerFOV class manages the FOV of all trainers"><polygon fill="#fff" stroke="#666" points="229 -1018 162 -1018 162 -999 229 -999 229 -1018"/><text x="195.5" y="-1006" font-family="Helvetica,sans-Serif" font-size="10" text-anchor="middle">TrainerFOV</text></a></g></g><g id="edge6" class="edge"><title>Node22-&gt;Node25</title><path fill="none" stroke="#63b8ff" d="M78.57,-1049.87C94.03,-1042.64 113.31,-1034.08 131,-1027.5 140.81,-1023.85 151.68,-1020.39 161.6,-1017.45"/><polygon fill="#63b8ff" stroke="#63b8ff" points="77.44 -1046.53 69.9 -1053.98 80.44 -1052.86 77.44 -1046.53"/></g><g id="node9" class="node"><title>Node32</title><g id="a_node9"><a target="_top" xlink:href="interface_i_savable.html"><polygon fill="#fff" stroke="#666" points="75 -1184 20 -1184 20 -1165 75 -1165 75 -1184"/><text x="47.5" y="-1172" font-family="Helvetica,sans-Serif" font-size="10" text-anchor="middle">ISavable</text></a></g></g><g id="edge8" class="edge"><title>Node32-&gt;Node33</title><path fill="none" stroke="#63b8ff" d="M77.86,-1189.38C93.41,-1196.91 112.97,-1205.84 131,-1212.5 138.85,-1215.4 147.38,-1218.11 155.57,-1220.5"/><polygon fill="#63b8ff" stroke="#63b8ff" points="79.68 -1186.37 69.17 -1185.1 76.6 -1192.65 79.68 -1186.37"/></g><g id="node10" class="node"><title>Node31</title><g id="a_node10"><a target="_top" xlink:href="class_player_controller.html" xlink:title="The PlayerController manages all player-related logic"><polygon fill="#fff" stroke="#666" points="238.5 -1166 152.5 -1166 152.5 -1147 238.5 -1147 238.5 -1166"/><text x="195.5" y="-1154" font-family="Helvetica,sans-Serif" font-size="10" text-anchor="middle">PlayerController</text></a></g></g><g id="edge7" class="edge"><title>Node32-&gt;Node31</title><path fill="none" stroke="#63b8ff" d="M86.52,-1169.81C106.64,-1167.33 131.39,-1164.28 152.13,-1161.72"/><polygon fill="#63b8ff" stroke="#63b8ff" points="86.28 -1166.32 76.78 -1171.01 87.13 -1173.26 86.28 -1166.32"/></g><g id="node11" class="node"><title>Node2</title><g id="a_node11"><a><polygon fill="#e0e0e0" stroke="#999" points="89.5 -629 5.5 -629 5.5 -610 89.5 -610 89.5 -629"/><text x="47.5" y="-617" font-family="Helvetica,sans-Serif" font-size="10" text-anchor="middle">MonoBehaviour</text></a></g></g><g id="edge32" class="edge"><title>Node2-&gt;Node1</title><path fill="none" stroke="#63b8ff" d="M50.28,-640.59C58.6,-737.17 94.82,-1134.33 131,-1175.5 137.28,-1182.64 146.16,-1187.05 155.3,-1189.74"/><polygon fill="#63b8ff" stroke="#63b8ff" points="53.78 -640.42 49.44 -630.75 46.8 -641.01 53.78 -640.42"/></g><g id="edge41" class="edge"><title>Node2-&gt;Node33</title><path fill="none" stroke="#63b8ff" d="M50.79,-640.67C62.04,-743.89 111.69,-1190.32 131,-1212.5 136.19,-1218.46 143.2,-1222.52 150.66,-1225.26"/><polygon fill="#63b8ff" stroke="#63b8ff" points="54.29 -640.44 49.73 -630.87 47.33 -641.19 54.29 -640.44"/></g><g id="edge27" class="edge"><title>Node2-&gt;Node21</title><path fill="none" stroke="#63b8ff" d="M49.21,-640.78C52.45,-724.75 68.45,-1031.9 131,-1101.5 137.43,-1108.66 146.48,-1113.06 155.74,-1115.74"/><polygon fill="#63b8ff" stroke="#63b8ff" points="52.72 -640.86 48.86 -631 45.72 -641.12 52.72 -640.86"/></g><g id="edge28" class="edge"><title>Node2-&gt;Node23</title><path fill="none" stroke="#63b8ff" d="M49.55,-640.91C53.91,-720.92 73.1,-1000.96 131,-1064.5 139.18,-1073.48 151.47,-1078.11 163.07,-1080.45"/><polygon fill="#63b8ff" stroke="#63b8ff" points="53.05 -640.8 49.04 -630.99 46.06 -641.16 53.05 -640.8"/></g><g id="edge37" class="edge"><title>Node2-&gt;Node24</title><path fill="none" stroke="#63b8ff" d="M49.92,-640.58C55.4,-715.83 77.62,-969.86 131,-1027.5 141.98,-1039.35 160.13,-1043.61 174.22,-1045.04"/><polygon fill="#63b8ff" stroke="#63b8ff" points="53.43 -640.62 49.24 -630.89 46.45 -641.11 53.43 -640.62"/></g><g id="edge42" class="edge"><title>Node2-&gt;Node25</title><path fill="none" stroke="#63b8ff" d="M50.37,-640.46C57.08,-711.07 82.17,-938.79 131,-990.5 138.95,-998.92 150.51,-1003.49 161.59,-1005.95"/><polygon fill="#63b8ff" stroke="#63b8ff" points="53.87 -640.32 49.47 -630.68 46.9 -640.96 53.87 -640.32"/></g><g id="edge35" class="edge"><title>Node2-&gt;Node31</title><path fill="none" stroke="#63b8ff" d="M50.52,-640.64C59.53,-733.27 97.15,-1100.38 131,-1138.5 136.55,-1144.75 144.1,-1148.91 152.06,-1151.65"/><polygon fill="#63b8ff" stroke="#63b8ff" points="54.03 -640.58 49.58 -630.96 47.06 -641.25 54.03 -640.58"/></g><g id="node12" class="node"><title>Node3</title><g id="a_node12"><a target="_top" xlink:href="class_battle_dialog_box.html" xlink:title="The BattleDialogBox manages the dialog boxes in the battle scene"><polygon fill="#fff" stroke="#666" points="239 -204 152 -204 152 -185 239 -185 239 -204"/><text x="195.5" y="-192" font-family="Helvetica,sans-Serif" font-size="10" text-anchor="middle">BattleDialogBox</text></a></g></g><g id="edge9" class="edge"><title>Node2-&gt;Node3</title><path fill="none" stroke="#63b8ff" d="M49.93,-598.47C55.44,-523.4 77.73,-269.99 131,-212.5 136.53,-206.53 143.88,-202.49 151.61,-199.76"/><polygon fill="#63b8ff" stroke="#63b8ff" points="46.46 -597.91 49.24 -608.13 53.44 -598.4 46.46 -597.91"/></g><g id="node13" class="node"><title>Node4</title><g id="a_node13"><a target="_top" xlink:href="class_battle_hud.html" xlink:title="The BattleHud class manages all the HUD's in the battle scene"><polygon fill="#fff" stroke="#666" points="225.5 -167 165.5 -167 165.5 -148 225.5 -148 225.5 -167"/><text x="195.5" y="-155" font-family="Helvetica,sans-Serif" font-size="10" text-anchor="middle">BattleHud</text></a></g></g><g id="edge10" class="edge"><title>Node2-&gt;Node4</title><path fill="none" stroke="#63b8ff" d="M49.56,-598.13C53.94,-518.31 73.21,-238.89 131,-175.5 139.65,-166.02 152.88,-161.38 165.03,-159.18"/><polygon fill="#63b8ff" stroke="#63b8ff" points="46.07 -597.86 49.04 -608.03 53.06 -598.22 46.07 -597.86"/></g><g id="node14" class="node"><title>Node5</title><g id="a_node14"><a target="_top" xlink:href="class_battle_system.html" xlink:title="The BattleSystem class manages the core battle scene logic"><polygon fill="#fff" stroke="#666" points="233.5 -130 157.5 -130 157.5 -111 233.5 -111 233.5 -130"/><text x="195.5" y="-118" font-family="Helvetica,sans-Serif" font-size="10" text-anchor="middle">BattleSystem</text></a></g></g><g id="edge11" class="edge"><title>Node2-&gt;Node5</title><path fill="none" stroke="#63b8ff" d="M49.22,-598.26C52.48,-514.46 68.57,-207.95 131,-138.5 137.74,-131 147.35,-126.53 157.06,-123.89"/><polygon fill="#63b8ff" stroke="#63b8ff" points="45.73 -597.9 48.86 -608.02 52.73 -598.16 45.73 -597.9"/></g><g id="node15" class="node"><title>Node6</title><g id="a_node15"><a target="_top" xlink:href="class_battle_unit.html" xlink:title="The BattleUnit class manages a unit (pokemon) in the battle scene"><polygon fill="#fff" stroke="#666" points="225.5 -93 165.5 -93 165.5 -74 225.5 -74 225.5 -93"/><text x="195.5" y="-81" font-family="Helvetica,sans-Serif" font-size="10" text-anchor="middle">BattleUnit</text></a></g></g><g id="edge12" class="edge"><title>Node2-&gt;Node6</title><path fill="none" stroke="#63b8ff" d="M48.93,-598.34C51.15,-510.67 63.92,-177.02 131,-101.5 139.6,-91.82 152.98,-87.18 165.24,-85.01"/><polygon fill="#63b8ff" stroke="#63b8ff" points="45.44 -598.04 48.71 -608.12 52.44 -598.2 45.44 -598.04"/></g><g id="node16" class="node"><title>Node7</title><g id="a_node16"><a target="_top" xlink:href="class_character.html" xlink:title="The Character class manages all character-related logic"><polygon fill="#fff" stroke="#666" points="225 -56 166 -56 166 -37 225 -37 225 -56"/><text x="195.5" y="-44" font-family="Helvetica,sans-Serif" font-size="10" text-anchor="middle">Character</text></a></g></g><g id="edge13" class="edge"><title>Node2-&gt;Node7</title><path fill="none" stroke="#63b8ff" d="M48.68,-598.32C49.91,-506.77 59.28,-146.09 131,-64.5 139.62,-54.69 153.16,-50.05 165.52,-47.91"/><polygon fill="#63b8ff" stroke="#63b8ff" points="45.18 -598.25 48.57 -608.29 52.18 -598.33 45.18 -598.25"/></g><g id="node17" class="node"><title>Node8</title><g id="a_node17"><a target="_top" xlink:href="class_character_animator.html" xlink:title="The CharacterAnimator class manages all character animations"><polygon fill="#fff" stroke="#666" points="244.5 -19 146.5 -19 146.5 0 244.5 0 244.5 -19"/><text x="195.5" y="-7" font-family="Helvetica,sans-Serif" font-size="10" text-anchor="middle">CharacterAnimator</text></a></g></g><g id="edge14" class="edge"><title>Node2-&gt;Node8</title><path fill="none" stroke="#63b8ff" d="M48.47,-598.13C48.75,-502.54 54.68,-115.13 131,-27.5 135.14,-22.75 140.43,-19.21 146.19,-16.58"/><polygon fill="#63b8ff" stroke="#63b8ff" points="44.97 -598.1 48.46 -608.1 51.97 -598.11 44.97 -598.1"/></g><g id="node18" class="node"><title>Node9</title><g id="a_node18"><a target="_top" xlink:href="class_dialog_manager.html" xlink:title="The DialogManager class manages all the dialog-related logic"><polygon fill="#fff" stroke="#666" points="236.5 -981 154.5 -981 154.5 -962 236.5 -962 236.5 -981"/><text x="195.5" y="-969" font-family="Helvetica,sans-Serif" font-size="10" text-anchor="middle">DialogManager</text></a></g></g><g id="edge15" class="edge"><title>Node2-&gt;Node9</title><path fill="none" stroke="#63b8ff" d="M51.02,-640.82C59.23,-706.9 87.27,-906.63 131,-952.5 137.19,-959 145.51,-963.3 154.07,-966.14"/><polygon fill="#63b8ff" stroke="#63b8ff" points="54.5 -640.48 49.82 -630.97 47.55 -641.32 54.5 -640.48"/></g><g id="node19" class="node"><title>Node10</title><g id="a_node19"><a target="_top" xlink:href="class_essential_objects.html" xlink:title="The EssentialObjects class manages the essential objects gameobject in the scene. This gameobject hol..."><polygon fill="#fff" stroke="#666" points="241 -944 150 -944 150 -925 241 -925 241 -944"/><text x="195.5" y="-932" font-family="Helvetica,sans-Serif" font-size="10" text-anchor="middle">EssentialObjects</text></a></g></g><g id="edge16" class="edge"><title>Node2-&gt;Node10</title><path fill="none" stroke="#63b8ff" d="M47.9,-640.7C47.57,-694.46 54.37,-837.41 131,-915.5 136.16,-920.76 142.71,-924.57 149.63,-927.34"/><polygon fill="#63b8ff" stroke="#63b8ff" points="51.4 -640.87 48.06 -630.82 44.4 -640.76 51.4 -640.87"/></g><g id="node20" class="node"><title>Node11</title><g id="a_node20"><a target="_top" xlink:href="class_essential_objects_spawner.html" xlink:title="The EssentialObjectsSpawner manages the initiating of the EssentialObjects gameobject"><polygon fill="#fff" stroke="#666" points="260 -907 131 -907 131 -888 260 -888 260 -907"/><text x="195.5" y="-895" font-family="Helvetica,sans-Serif" font-size="10" text-anchor="middle">EssentialObjectsSpawner</text></a></g></g><g id="edge17" class="edge"><title>Node2-&gt;Node11</title><path fill="none" stroke="#63b8ff" d="M48.9,-640.66C51.01,-689.67 63.17,-811.86 131,-878.5 134.78,-882.21 139.24,-885.2 144.04,-887.61"/><polygon fill="#63b8ff" stroke="#63b8ff" points="52.41 -640.76 48.59 -630.88 45.41 -640.98 52.41 -640.76"/></g><g id="node21" class="node"><title>Node12</title><g id="a_node21"><a target="_top" xlink:href="class_fader.html" xlink:title="The Fader class manages the fading effects in the game"><polygon fill="#fff" stroke="#666" points="216 -870 175 -870 175 -851 216 -851 216 -870"/><text x="195.5" y="-858" font-family="Helvetica,sans-Serif" font-size="10" text-anchor="middle">Fader</text></a></g></g><g id="edge18" class="edge"><title>Node2-&gt;Node12</title><path fill="none" stroke="#63b8ff" d="M50.2,-640.56C54.89,-684.43 71.87,-786.1 131,-841.5 142.84,-852.59 160.9,-857.23 174.74,-859.16"/><polygon fill="#63b8ff" stroke="#63b8ff" points="53.69 -640.27 49.27 -630.65 46.72 -640.93 53.69 -640.27"/></g><g id="node22" class="node"><title>Node13</title><g id="a_node22"><a target="_top" xlink:href="class_game_controller.html" xlink:title="The GameController class manages all core game logic"><polygon fill="#fff" stroke="#666" points="238 -833 153 -833 153 -814 238 -814 238 -833"/><text x="195.5" y="-821" font-family="Helvetica,sans-Serif" font-size="10" text-anchor="middle">GameController</text></a></g></g><g id="edge19" class="edge"><title>Node2-&gt;Node13</title><path fill="none" stroke="#63b8ff" d="M51.95,-640.43C59.37,-678.69 80.45,-760.07 131,-804.5 137.14,-809.89 144.75,-813.76 152.56,-816.52"/><polygon fill="#63b8ff" stroke="#63b8ff" points="55.42 -639.93 50.21 -630.71 48.53 -641.17 55.42 -639.93"/></g><g id="node23" class="node"><title>Node14</title><g id="a_node23"><a target="_top" xlink:href="class_game_layers.html" xlink:title="The game layers class manages all the layers in the game"><polygon fill="#fff" stroke="#666" points="231.5 -796 159.5 -796 159.5 -777 231.5 -777 231.5 -796"/><text x="195.5" y="-784" font-family="Helvetica,sans-Serif" font-size="10" text-anchor="middle">GameLayers</text></a></g></g><g id="edge20" class="edge"><title>Node2-&gt;Node14</title><path fill="none" stroke="#63b8ff" d="M54.32,-639.77C64.52,-671.69 88.69,-733.53 131,-767.5 139.08,-773.98 149.32,-778.26 159.21,-781.07"/><polygon fill="#63b8ff" stroke="#63b8ff" points="57.78 -639.12 51.52 -630.57 51.08 -641.15 57.78 -639.12"/></g><g id="node24" class="node"><title>Node15</title><g id="a_node24"><a target="_top" xlink:href="class_global_settings.html" xlink:title="The GlobalSettings class manages all global settings for the game"><polygon fill="#fff" stroke="#666" points="235.5 -759 155.5 -759 155.5 -740 235.5 -740 235.5 -759"/><text x="195.5" y="-747" font-family="Helvetica,sans-Serif" font-size="10" text-anchor="middle">GlobalSettings</text></a></g></g><g id="edge21" class="edge"><title>Node2-&gt;Node15</title><path fill="none" stroke="#63b8ff" d="M58.26,-639.61C71.39,-664.56 97.07,-706.72 131,-730.5 138.16,-735.52 146.67,-739.23 155.09,-741.97"/><polygon fill="#63b8ff" stroke="#63b8ff" points="61.46 -638.17 53.81 -630.83 55.21 -641.33 61.46 -638.17"/></g><g id="node25" class="node"><title>Node16</title><g id="a_node25"><a target="_top" xlink:href="class_h_p_bar.html" xlink:title="The HPBar class manages all HPBars"><polygon fill="#fff" stroke="#666" points="218.5 -722 172.5 -722 172.5 -703 218.5 -703 218.5 -722"/><text x="195.5" y="-710" font-family="Helvetica,sans-Serif" font-size="10" text-anchor="middle">HPBar</text></a></g></g><g id="edge22" class="edge"><title>Node2-&gt;Node16</title><path fill="none" stroke="#63b8ff" d="M64.42,-637.8C79.88,-654.53 104.8,-678.81 131,-693.5 143.75,-700.65 159.48,-705.38 172.09,-708.33"/><polygon fill="#63b8ff" stroke="#63b8ff" points="67.16 -635.62 57.87 -630.53 61.96 -640.3 67.16 -635.62"/></g><g id="node26" class="node"><title>Node17</title><g id="a_node26"><a target="_top" xlink:href="class_inventory.html" xlink:title="The Inventory class manages all Inventory-related logic"><polygon fill="#fff" stroke="#666" points="224 -685 167 -685 167 -666 224 -666 224 -685"/><text x="195.5" y="-673" font-family="Helvetica,sans-Serif" font-size="10" text-anchor="middle">Inventory</text></a></g></g><g id="edge23" class="edge"><title>Node2-&gt;Node17</title><path fill="none" stroke="#63b8ff" d="M78.57,-634.13C94.03,-641.36 113.31,-649.92 131,-656.5 142.54,-660.79 155.53,-664.82 166.73,-668.05"/><polygon fill="#63b8ff" stroke="#63b8ff" points="80.44 -631.14 69.9 -630.02 77.44 -637.47 80.44 -631.14"/></g><g id="node27" class="node"><title>Node18</title><g id="a_node27"><a target="_top" xlink:href="class_inventory_u_i.html" xlink:title="The InventoryUI class manages the inventory UI"><polygon fill="#fff" stroke="#666" points="229.5 -648 161.5 -648 161.5 -629 229.5 -629 229.5 -648"/><text x="195.5" y="-636" font-family="Helvetica,sans-Serif" font-size="10" text-anchor="middle">InventoryUI</text></a></g></g><g id="edge24" class="edge"><title>Node2-&gt;Node18</title><path fill="none" stroke="#63b8ff" d="M101.14,-626.35C121.21,-628.96 143.52,-631.87 161.29,-634.18"/><polygon fill="#63b8ff" stroke="#63b8ff" points="101.82 -622.91 91.45 -625.09 100.91 -629.85 101.82 -622.91"/></g><g id="node28" class="node"><title>Node19</title><g id="a_node28"><a target="_top" xlink:href="class_invisible_tile_map.html"><polygon fill="#fff" stroke="#666" points="239 -611 152 -611 152 -592 239 -592 239 -611"/><text x="195.5" y="-599" font-family="Helvetica,sans-Serif" font-size="10" text-anchor="middle">InvisibleTileMap</text></a></g></g><g id="edge25" class="edge"><title>Node2-&gt;Node19</title><path fill="none" stroke="#63b8ff" d="M101.14,-613.01C117.74,-610.96 135.86,-608.73 151.68,-606.78"/><polygon fill="#63b8ff" stroke="#63b8ff" points="100.95 -609.51 91.45 -614.2 101.8 -616.45 100.95 -609.51"/></g><g id="node29" class="node"><title>Node20</title><g id="a_node29"><a target="_top" xlink:href="class_item_slot_u_i.html" xlink:title="The ItemSlotUI class manages all the ItemSlot UI"><polygon fill="#fff" stroke="#666" points="227.5 -574 163.5 -574 163.5 -555 227.5 -555 227.5 -574"/><text x="195.5" y="-562" font-family="Helvetica,sans-Serif" font-size="10" text-anchor="middle">ItemSlotUI</text></a></g></g><g id="edge26" class="edge"><title>Node2-&gt;Node20</title><path fill="none" stroke="#63b8ff" d="M78.53,-604.77C93.98,-597.51 113.26,-588.95 131,-582.5 141.34,-578.74 152.85,-575.27 163.21,-572.4"/><polygon fill="#63b8ff" stroke="#63b8ff" points="77.39 -601.43 69.87 -608.89 80.4 -607.75 77.39 -601.43"/></g><g id="node30" class="node"><title>Node26</title><g id="a_node30"><a target="_top" xlink:href="class_map_area.html" xlink:title="The MapArea class manages all map-related data"><polygon fill="#fff" stroke="#666" points="223.5 -537 167.5 -537 167.5 -518 223.5 -518 223.5 -537"/><text x="195.5" y="-525" font-family="Helvetica,sans-Serif" font-size="10" text-anchor="middle">MapArea</text></a></g></g><g id="edge29" class="edge"><title>Node2-&gt;Node26</title><path fill="none" stroke="#63b8ff" d="M64.37,-601.11C79.8,-584.33 104.7,-560 131,-545.5 142.14,-539.36 155.56,-535.16 167.18,-532.37"/><polygon fill="#63b8ff" stroke="#63b8ff" points="61.89 -598.63 57.83 -608.42 67.11 -603.3 61.89 -598.63"/></g><g id="node31" class="node"><title>Node27</title><g id="a_node31"><a target="_top" xlink:href="class_menu_controller.html" xlink:title="The MenuController class manages all menu-related logic"><polygon fill="#fff" stroke="#666" points="237 -500 154 -500 154 -481 237 -481 237 -500"/><text x="195.5" y="-488" font-family="Helvetica,sans-Serif" font-size="10" text-anchor="middle">MenuController</text></a></g></g><g id="edge30" class="edge"><title>Node2-&gt;Node27</title><path fill="none" stroke="#63b8ff" d="M58.01,-599.69C71.02,-574.7 96.72,-532.15 131,-508.5 137.79,-503.81 145.78,-500.34 153.77,-497.77"/><polygon fill="#63b8ff" stroke="#63b8ff" points="54.97 -597.94 53.62 -608.45 61.23 -601.08 54.97 -597.94"/></g><g id="node32" class="node"><title>Node28</title><g id="a_node32"><a target="_top" xlink:href="class_move_selection_u_i.html" xlink:title="The MoveSelectionUI class manages the move selection UI in the battle scene"><polygon fill="#fff" stroke="#666" points="241.5 -463 149.5 -463 149.5 -444 241.5 -444 241.5 -463"/><text x="195.5" y="-451" font-family="Helvetica,sans-Serif" font-size="10" text-anchor="middle">MoveSelectionUI</text></a></g></g><g id="edge31" class="edge"><title>Node2-&gt;Node28</title><path fill="none" stroke="#63b8ff" d="M54.26,-599.16C64.39,-567.14 88.45,-505.16 131,-471.5 136.39,-467.23 142.74,-463.98 149.31,-461.5"/><polygon fill="#63b8ff" stroke="#63b8ff" points="51.01 -597.81 51.49 -608.4 57.72 -599.82 51.01 -597.81"/></g><g id="node33" class="node"><title>Node29</title><g id="a_node33"><a target="_top" xlink:href="class_party_member_u_i.html" xlink:title="The PartyMemberUI class manages the individual party members UI in the party screen"><polygon fill="#fff" stroke="#666" points="238.5 -426 152.5 -426 152.5 -407 238.5 -407 238.5 -426"/><text x="195.5" y="-414" font-family="Helvetica,sans-Serif" font-size="10" text-anchor="middle">PartyMemberUI</text></a></g></g><g id="edge33" class="edge"><title>Node2-&gt;Node29</title><path fill="none" stroke="#63b8ff" d="M51.89,-598.5C59.21,-560.13 80.13,-478.56 131,-434.5 137.06,-429.25 144.56,-425.52 152.25,-422.88"/><polygon fill="#63b8ff" stroke="#63b8ff" points="48.46 -597.8 50.17 -608.26 55.36 -599.02 48.46 -597.8"/></g><g id="node34" class="node"><title>Node30</title><g id="a_node34"><a target="_top" xlink:href="class_party_screen.html" xlink:title="The PartyScreen text manages the core party screen logic"><polygon fill="#fff" stroke="#666" points="231 -389 160 -389 160 -370 231 -370 231 -389"/><text x="195.5" y="-377" font-family="Helvetica,sans-Serif" font-size="10" text-anchor="middle">PartyScreen</text></a></g></g><g id="edge34" class="edge"><title>Node2-&gt;Node30</title><path fill="none" stroke="#63b8ff" d="M50.14,-598.37C54.7,-554.38 71.47,-452.47 131,-397.5 138.83,-390.27 149.35,-385.92 159.57,-383.31"/><polygon fill="#63b8ff" stroke="#63b8ff" points="46.65 -598.04 49.23 -608.32 53.62 -598.68 46.65 -598.04"/></g><g id="node35" class="node"><title>Node34</title><g id="a_node35"><a target="_top" xlink:href="class_pokemon_party.html" xlink:title="The PokemonParty class manages all pokemon parties"><polygon fill="#fff" stroke="#666" points="236 -352 155 -352 155 -333 236 -333 236 -352"/><text x="195.5" y="-340" font-family="Helvetica,sans-Serif" font-size="10" text-anchor="middle">PokemonParty</text></a></g></g><g id="edge36" class="edge"><title>Node2-&gt;Node34</title><path fill="none" stroke="#63b8ff" d="M48.84,-598.27C50.8,-549.12 62.69,-426.65 131,-360.5 137.5,-354.2 146.04,-350.08 154.74,-347.38"/><polygon fill="#63b8ff" stroke="#63b8ff" points="45.34 -597.99 48.56 -608.09 52.34 -598.19 45.34 -597.99"/></g><g id="node36" class="node"><title>Node35</title><g id="a_node36"><a target="_top" xlink:href="class_savable_entity.html"><polygon fill="#fff" stroke="#666" points="234 -315 157 -315 157 -296 234 -296 234 -315"/><text x="195.5" y="-303" font-family="Helvetica,sans-Serif" font-size="10" text-anchor="middle">SavableEntity</text></a></g></g><g id="edge38" class="edge"><title>Node2-&gt;Node35</title><path fill="none" stroke="#63b8ff" d="M47.83,-598.24C47.35,-544.31 53.81,-401.03 131,-323.5 137.87,-316.6 147.18,-312.29 156.55,-309.63"/><polygon fill="#63b8ff" stroke="#63b8ff" points="44.33 -598.22 48.03 -608.15 51.33 -598.08 44.33 -598.22"/></g><g id="node37" class="node"><title>Node36</title><g id="a_node37"><a target="_top" xlink:href="class_saving_system.html"><polygon fill="#fff" stroke="#666" points="235.5 -278 155.5 -278 155.5 -259 235.5 -259 235.5 -278"/><text x="195.5" y="-266" font-family="Helvetica,sans-Serif" font-size="10" text-anchor="middle">SavingSystem</text></a></g></g><g id="edge39" class="edge"><title>Node2-&gt;Node36</title><path fill="none" stroke="#63b8ff" d="M50.99,-598.16C59.12,-531.99 86.94,-332.05 131,-286.5 137.45,-279.83 146.18,-275.58 155.09,-272.88"/><polygon fill="#63b8ff" stroke="#63b8ff" points="47.52 -597.67 49.81 -608.02 54.47 -598.5 47.52 -597.67"/></g><g id="node38" class="node"><title>Node37</title><g id="a_node38"><a target="_top" xlink:href="class_scene_details.html" xlink:title="The SceneDetails class manages all data and details about a scene"><polygon fill="#fff" stroke="#666" points="233 -241 158 -241 158 -222 233 -222 233 -241"/><text x="195.5" y="-229" font-family="Helvetica,sans-Serif" font-size="10" text-anchor="middle">SceneDetails</text></a></g></g><g id="edge40" class="edge"><title>Node2-&gt;Node37</title><path fill="none" stroke="#63b8ff" d="M50.42,-598.14C57.22,-527.18 82.39,-300.96 131,-249.5 138,-242.09 147.81,-237.65 157.63,-235.02"/><polygon fill="#63b8ff" stroke="#63b8ff" points="46.95 -597.71 49.5 -607.99 53.92 -598.36 46.95 -597.71"/></g></g></svg>