<svg xmlns="http://www.w3.org/2000/svg" xmlns:xlink="http://www.w3.org/1999/xlink" width="436" height="119pt" viewBox="0 0 327 119"><g id="graph0" class="graph" transform="scale(1 1) rotate(0) translate(4 115)"><title>Graphical Class Hierarchy</title><g id="node1" class="node"><title>Node0</title><g id="a_node1"><a><polygon fill="#e0e0e0" stroke="#999" points="89 -56 0 -56 0 -37 89 -37 89 -56"/><text x="44.5" y="-44" font-family="Helvetica,sans-Serif" font-size="10" text-anchor="middle">ScriptableObject</text></a></g></g><g id="node2" class="node"><title>Node1</title><g id="a_node2"><a target="_top" xlink:href="class_item_base.html" xlink:title="The ItemBase class manage the basic data for all items"><polygon fill="#fff" stroke="#666" points="194.5 -93 135.5 -93 135.5 -74 194.5 -74 194.5 -93"/><text x="165" y="-81" font-family="Helvetica,sans-Serif" font-size="10" text-anchor="middle">ItemBase</text></a></g></g><g id="edge1" class="edge"><title>Node0-&gt;Node1</title><path fill="none" stroke="#63b8ff" d="M87.84,-59.72C103.62,-64.65 121.14,-70.12 135.4,-74.57"/><polygon fill="#63b8ff" stroke="#63b8ff" points="89.29 -56.51 78.7 -56.87 87.2 -63.19 89.29 -56.51"/></g><g id="node5" class="node"><title>Node4</title><g id="a_node5"><a target="_top" xlink:href="class_move_base.html" xlink:title="The MoveBase class stores all data for a move"><polygon fill="#fff" stroke="#666" points="196.5 -56 133.5 -56 133.5 -37 196.5 -37 196.5 -56"/><text x="165" y="-44" font-family="Helvetica,sans-Serif" font-size="10" text-anchor="middle">MoveBase</text></a></g></g><g id="edge4" class="edge"><title>Node0-&gt;Node4</title><path fill="none" stroke="#63b8ff" d="M100.46,-46.5C111.76,-46.5 123.27,-46.5 133.33,-46.5"/><polygon fill="#63b8ff" stroke="#63b8ff" points="100.8 -43 90.8 -46.5 100.8 -50 100.8 -43"/></g><g id="node6" class="node"><title>Node5</title><g id="a_node6"><a target="_top" xlink:href="class_pokemon_base.html" xlink:title="The PokemonBase class holds all data for all pokemon"><polygon fill="#fff" stroke="#666" points="205 -19 125 -19 125 0 205 0 205 -19"/><text x="165" y="-7" font-family="Helvetica,sans-Serif" font-size="10" text-anchor="middle">PokemonBase</text></a></g></g><g id="edge5" class="edge"><title>Node0-&gt;Node5</title><path fill="none" stroke="#63b8ff" d="M88.03,-33.22C102.58,-28.68 118.6,-23.68 132.16,-19.44"/><polygon fill="#63b8ff" stroke="#63b8ff" points="87.2 -29.81 78.7 -36.13 89.29 -36.49 87.2 -29.81"/></g><g id="node3" class="node"><title>Node2</title><g id="a_node3"><a target="_top" xlink:href="class_pokeball_item.html" xlink:title="The PokeballItem manages all pokeball-related logic"><polygon fill="#fff" stroke="#666" points="317 -111 243 -111 243 -92 317 -92 317 -111"/><text x="280" y="-99" font-family="Helvetica,sans-Serif" font-size="10" text-anchor="middle">PokeballItem</text></a></g></g><g id="edge2" class="edge"><title>Node1-&gt;Node2</title><path fill="none" stroke="#63b8ff" d="M205.85,-89.85C217.79,-91.75 230.82,-93.83 242.54,-95.69"/><polygon fill="#63b8ff" stroke="#63b8ff" points="206.73 -86.44 196.3 -88.33 205.63 -93.36 206.73 -86.44"/></g><g id="node4" class="node"><title>Node3</title><g id="a_node4"><a target="_top" xlink:href="class_recovery_item.html" xlink:title="The RecoveryItem class manages all the recovery item logic"><polygon fill="#fff" stroke="#666" points="319 -74 241 -74 241 -55 319 -55 319 -74"/><text x="280" y="-62" font-family="Helvetica,sans-Serif" font-size="10" text-anchor="middle">RecoveryItem</text></a></g></g><g id="edge3" class="edge"><title>Node1-&gt;Node3</title><path fill="none" stroke="#63b8ff" d="M206.15,-76.75C217.44,-74.85 229.69,-72.79 240.86,-70.91"/><polygon fill="#63b8ff" stroke="#63b8ff" points="205.58 -73.3 196.3 -78.41 206.74 -80.2 205.58 -73.3"/></g></g></svg>