<svg xmlns="http://www.w3.org/2000/svg" xmlns:xlink="http://www.w3.org/1999/xlink" width="202pt" height="82pt" viewBox="0 0 201.5 82"><g id="graph0" class="graph" transform="scale(1 1) rotate(0) translate(4 78)"><title>ISavable</title><g id="node1" class="node"><title>Node1</title><g id="a_node1"><a><polygon fill="#999" stroke="#666" points="123.5 -74 68.5 -74 68.5 -55 123.5 -55 123.5 -74"/><text x="96" y="-62" font-family="Helvetica,sans-Serif" font-size="10" text-anchor="middle">ISavable</text></a></g></g><g id="node2" class="node"><title>Node2</title><g id="a_node2"><a target="_top" xlink:href="class_player_controller.html" xlink:title="The PlayerController manages all player-related logic"><polygon fill="#fff" stroke="#666" points="86 -19 0 -19 0 0 86 0 86 -19"/><text x="43" y="-7" font-family="Helvetica,sans-Serif" font-size="10" text-anchor="middle">PlayerController</text></a></g></g><g id="edge1" class="edge"><title>Node1-&gt;Node2</title><path fill="none" stroke="#63b8ff" d="M79.28,-46.78C70.22,-37.72 59.4,-26.9 51.94,-19.44"/><polygon fill="#63b8ff" stroke="#63b8ff" points="76.63 -49.08 86.18 -53.68 81.58 -44.13 76.63 -49.08"/></g><g id="node3" class="node"><title>Node3</title><g id="a_node3"><a target="_top" xlink:href="class_trainer_controller.html" xlink:title="The TrainerController class manages all trainer-related logic"><polygon fill="#fff" stroke="#666" points="193.5 -19 104.5 -19 104.5 0 193.5 0 193.5 -19"/><text x="149" y="-7" font-family="Helvetica,sans-Serif" font-size="10" text-anchor="middle">TrainerController</text></a></g></g><g id="edge2" class="edge"><title>Node1-&gt;Node3</title><path fill="none" stroke="#63b8ff" d="M112.72,-46.78C121.78,-37.72 132.6,-26.9 140.06,-19.44"/><polygon fill="#63b8ff" stroke="#63b8ff" points="110.42 -44.13 105.82 -53.68 115.37 -49.08 110.42 -44.13"/></g></g></svg>