<svg xmlns="http://www.w3.org/2000/svg" xmlns:xlink="http://www.w3.org/1999/xlink" width="420" height="82pt" viewBox="0 0 315 82"><g id="graph0" class="graph" transform="scale(1 1) rotate(0) translate(4 78)"><title>IPlayerTriggerable</title><g id="node1" class="node"><title>Node1</title><g id="a_node1"><a><polygon fill="#999" stroke="#666" points="212 -74 117 -74 117 -55 212 -55 212 -74"/><text x="164.5" y="-62" font-family="Helvetica,sans-Serif" font-size="10" text-anchor="middle">IPlayerTriggerable</text></a></g></g><g id="node2" class="node"><title>Node2</title><g id="a_node2"><a target="_top" xlink:href="class_location_portal.html" xlink:title="The LocationPortal manages all logic for the location portals"><polygon fill="#fff" stroke="#666" points="79 -19 0 -19 0 0 79 0 79 -19"/><text x="39.5" y="-7" font-family="Helvetica,sans-Serif" font-size="10" text-anchor="middle">LocationPortal</text></a></g></g><g id="edge1" class="edge"><title>Node1-&gt;Node2</title><path fill="none" stroke="#63b8ff" d="M132.81,-50.06C110.1,-40.43 80.16,-27.74 60.39,-19.36"/><polygon fill="#63b8ff" stroke="#63b8ff" points="131.33 -53.24 141.9 -53.92 134.06 -46.79 131.33 -53.24"/></g><g id="node3" class="node"><title>Node3</title><g id="a_node3"><a target="_top" xlink:href="class_long_grass.html"><polygon fill="#fff" stroke="#bfbfbf" points="161.5 -19 97.5 -19 97.5 0 161.5 0 161.5 -19"/><text x="129.5" y="-7" font-family="Helvetica,sans-Serif" font-size="10" text-anchor="middle">LongGrass</text></a></g></g><g id="edge2" class="edge"><title>Node1-&gt;Node3</title><path fill="none" stroke="#63b8ff" d="M152.52,-45.36C146.75,-36.62 140.07,-26.51 135.41,-19.44"/><polygon fill="#63b8ff" stroke="#63b8ff" points="149.46 -47.07 157.89 -53.49 155.3 -43.21 149.46 -47.07"/></g><g id="node4" class="node"><title>Node4</title><g id="a_node4"><a target="_top" xlink:href="class_portal.html" xlink:title="The Portal class manages all portal-related logic"><polygon fill="#fff" stroke="#666" points="221.5 -19 179.5 -19 179.5 0 221.5 0 221.5 -19"/><text x="200.5" y="-7" font-family="Helvetica,sans-Serif" font-size="10" text-anchor="middle">Portal</text></a></g></g><g id="edge3" class="edge"><title>Node1-&gt;Node4</title><path fill="none" stroke="#63b8ff" d="M176.82,-45.36C182.76,-36.62 189.62,-26.51 194.43,-19.44"/><polygon fill="#63b8ff" stroke="#63b8ff" points="174.02 -43.26 171.3 -53.5 179.81 -47.19 174.02 -43.26"/></g><g id="node5" class="node"><title>Node5</title><g id="a_node5"><a target="_top" xlink:href="class_trainer_f_o_v.html" xlink:title="The TrainerFOV class manages the FOV of all trainers"><polygon fill="#fff" stroke="#666" points="307 -19 240 -19 240 0 307 0 307 -19"/><text x="273.5" y="-7" font-family="Helvetica,sans-Serif" font-size="10" text-anchor="middle">TrainerFOV</text></a></g></g><g id="edge4" class="edge"><title>Node1-&gt;Node5</title><path fill="none" stroke="#63b8ff" d="M193.22,-49.53C212.88,-39.97 238.36,-27.59 255.28,-19.36"/><polygon fill="#63b8ff" stroke="#63b8ff" points="191.81 -46.33 184.35 -53.85 194.88 -52.62 191.81 -46.33"/></g></g></svg>