<?xml version="1.0" encoding="UTF-8" standalone="no"?>
<!DOCTYPE svg PUBLIC "-//W3C//DTD SVG 1.1//EN"
 "http://www.w3.org/Graphics/SVG/1.1/DTD/svg11.dtd">
<!-- Generated by graphviz version 7.0.4 (20221203.1631)
 -->
<!-- Title: Interactable Pages: 1 -->
<svg width="196pt" height="82pt"
 viewBox="0.00 0.00 195.50 82.00" xmlns="http://www.w3.org/2000/svg" xmlns:xlink="http://www.w3.org/1999/xlink">
<g id="graph0" class="graph" transform="scale(1 1) rotate(0) translate(4 78)">
<title>Interactable</title>
<!-- Node1 -->
<g id="node1" class="node">
<title>Node1</title>
<g id="a_node1"><a xlink:title=" ">
<polygon fill="#999999" stroke="#666666" points="125,-74 57,-74 57,-55 125,-55 125,-74"/>
<text text-anchor="middle" x="91" y="-62" font-family="Helvetica,sans-Serif" font-size="10.00">Interactable</text>
</a>
</g>
</g>
<!-- Node2 -->
<g id="node2" class="node">
<title>Node2</title>
<g id="a_node2"><a xlink:href="class_n_p_c_controller.html" target="_top" xlink:title="The NPCController class manages all NPC&#45;related logic">
<polygon fill="white" stroke="#666666" points="80,-19 0,-19 0,0 80,0 80,-19"/>
<text text-anchor="middle" x="40" y="-7" font-family="Helvetica,sans-Serif" font-size="10.00">NPCController</text>
</a>
</g>
</g>
<!-- Node1&#45;&gt;Node2 -->
<g id="edge1" class="edge">
<title>Node1&#45;&gt;Node2</title>
<path fill="none" stroke="#63b8ff" d="M74.64,-46.5C65.98,-37.5 55.7,-26.82 48.6,-19.44"/>
<polygon fill="#63b8ff" stroke="#63b8ff" points="72.07,-48.88 81.53,-53.66 77.12,-44.02 72.07,-48.88"/>
</g>
<!-- Node3 -->
<g id="node3" class="node">
<title>Node3</title>
<g id="a_node3"><a xlink:href="class_trainer_controller.html" target="_top" xlink:title="The TrainerController class manages all trainer&#45;related logic">
<polygon fill="white" stroke="#666666" points="187.5,-19 98.5,-19 98.5,0 187.5,0 187.5,-19"/>
<text text-anchor="middle" x="143" y="-7" font-family="Helvetica,sans-Serif" font-size="10.00">TrainerController</text>
</a>
</g>
</g>
<!-- Node1&#45;&gt;Node3 -->
<g id="edge2" class="edge">
<title>Node1&#45;&gt;Node3</title>
<path fill="none" stroke="#63b8ff" d="M107.41,-46.78C116.29,-37.72 126.91,-26.9 134.23,-19.44"/>
<polygon fill="#63b8ff" stroke="#63b8ff" points="105.15,-44.08 100.65,-53.67 110.15,-48.98 105.15,-44.08"/>
</g>
</g>
</svg>
