<svg xmlns="http://www.w3.org/2000/svg" xmlns:xlink="http://www.w3.org/1999/xlink" width="196pt" height="82pt" viewBox="0 0 195.5 82"><g id="graph0" class="graph" transform="scale(1 1) rotate(0) translate(4 78)"><title>Interactable</title><g id="node1" class="node"><title>Node1</title><g id="a_node1"><a><polygon fill="#999" stroke="#666" points="125 -74 57 -74 57 -55 125 -55 125 -74"/><text x="91" y="-62" font-family="Helvetica,sans-Serif" font-size="10" text-anchor="middle">Interactable</text></a></g></g><g id="node2" class="node"><title>Node2</title><g id="a_node2"><a target="_top" xlink:href="class_n_p_c_controller.html" xlink:title="The NPCController class manages all NPC-related logic"><polygon fill="#fff" stroke="#666" points="80 -19 0 -19 0 0 80 0 80 -19"/><text x="40" y="-7" font-family="Helvetica,sans-Serif" font-size="10" text-anchor="middle">NPCController</text></a></g></g><g id="edge1" class="edge"><title>Node1-&gt;Node2</title><path fill="none" stroke="#63b8ff" d="M74.64,-46.5C65.98,-37.5 55.7,-26.82 48.6,-19.44"/><polygon fill="#63b8ff" stroke="#63b8ff" points="72.07 -48.88 81.53 -53.66 77.12 -44.02 72.07 -48.88"/></g><g id="node3" class="node"><title>Node3</title><g id="a_node3"><a target="_top" xlink:href="class_trainer_controller.html" xlink:title="The TrainerController class manages all trainer-related logic"><polygon fill="#fff" stroke="#666" points="187.5 -19 98.5 -19 98.5 0 187.5 0 187.5 -19"/><text x="143" y="-7" font-family="Helvetica,sans-Serif" font-size="10" text-anchor="middle">TrainerController</text></a></g></g><g id="edge2" class="edge"><title>Node1-&gt;Node3</title><path fill="none" stroke="#63b8ff" d="M107.41,-46.78C116.29,-37.72 126.91,-26.9 134.23,-19.44"/><polygon fill="#63b8ff" stroke="#63b8ff" points="105.15 -44.08 100.65 -53.67 110.15 -48.98 105.15 -44.08"/></g></g></svg>