<?xml version="1.0" encoding="UTF-8" standalone="no"?>
<!DOCTYPE svg PUBLIC "-//W3C//DTD SVG 1.1//EN"
 "http://www.w3.org/Graphics/SVG/1.1/DTD/svg11.dtd">
<!-- Generated by graphviz version 2.49.3 (20211027.1534)
 -->
<!-- Title: TrainerController Pages: 1 -->
<svg width="252pt" height="84pt"
 viewBox="0.00 0.00 251.50 84.00" xmlns="http://www.w3.org/2000/svg" xmlns:xlink="http://www.w3.org/1999/xlink">
<g id="graph0" class="graph" transform="scale(1 1) rotate(0) translate(4 80)">
<title>TrainerController</title>
<polygon fill="white" stroke="transparent" points="-4,4 -4,-80 247.5,-80 247.5,4 -4,4"/>
<!-- Node1 -->
<g id="node1" class="node">
<title>Node1</title>
<g id="a_node1"><a xlink:title="The TrainerController class manages all trainer&#45;related logic">
<polygon fill="#bfbfbf" stroke="black" points="92,-0.5 92,-19.5 180,-19.5 180,-0.5 92,-0.5"/>
<text text-anchor="middle" x="136" y="-7.5" font-family="Helvetica,sans-Serif" font-size="10.00">TrainerController</text>
</a>
</g>
</g>
<!-- Node2 -->
<g id="node2" class="node">
<title>Node2</title>
<g id="a_node2"><a xlink:title=" ">
<polygon fill="white" stroke="#bfbfbf" points="0,-56.5 0,-75.5 84,-75.5 84,-56.5 0,-56.5"/>
<text text-anchor="middle" x="42" y="-63.5" font-family="Helvetica,sans-Serif" font-size="10.00">MonoBehaviour</text>
</a>
</g>
</g>
<!-- Node2&#45;&gt;Node1 -->
<g id="edge1" class="edge">
<title>Node2&#45;&gt;Node1</title>
<path fill="none" stroke="midnightblue" d="M66.06,-51.18C83.36,-41.24 106.15,-28.15 120.93,-19.65"/>
<polygon fill="midnightblue" stroke="midnightblue" points="64.03,-48.31 57.1,-56.32 67.52,-54.38 64.03,-48.31"/>
</g>
<!-- Node3 -->
<g id="node3" class="node">
<title>Node3</title>
<g id="a_node3"><a xlink:href="interfaceInteractable.html" target="_top" xlink:title=" ">
<polygon fill="white" stroke="black" points="102,-56.5 102,-75.5 170,-75.5 170,-56.5 102,-56.5"/>
<text text-anchor="middle" x="136" y="-63.5" font-family="Helvetica,sans-Serif" font-size="10.00">Interactable</text>
</a>
</g>
</g>
<!-- Node3&#45;&gt;Node1 -->
<g id="edge2" class="edge">
<title>Node3&#45;&gt;Node1</title>
<path fill="none" stroke="midnightblue" d="M136,-45.8C136,-36.91 136,-26.78 136,-19.75"/>
<polygon fill="midnightblue" stroke="midnightblue" points="132.5,-46.08 136,-56.08 139.5,-46.08 132.5,-46.08"/>
</g>
<!-- Node4 -->
<g id="node4" class="node">
<title>Node4</title>
<g id="a_node4"><a xlink:href="interfaceISavable.html" target="_top" xlink:title=" ">
<polygon fill="white" stroke="black" points="188.5,-56.5 188.5,-75.5 243.5,-75.5 243.5,-56.5 188.5,-56.5"/>
<text text-anchor="middle" x="216" y="-63.5" font-family="Helvetica,sans-Serif" font-size="10.00">ISavable</text>
</a>
</g>
</g>
<!-- Node4&#45;&gt;Node1 -->
<g id="edge3" class="edge">
<title>Node4&#45;&gt;Node1</title>
<path fill="none" stroke="midnightblue" d="M194.7,-50.62C180.08,-40.76 161.17,-27.99 148.82,-19.65"/>
<polygon fill="midnightblue" stroke="midnightblue" points="192.9,-53.63 203.15,-56.32 196.82,-47.83 192.9,-53.63"/>
</g>
</g>
</svg>
