<?xml version="1.0" encoding="UTF-8" standalone="no"?>
<!DOCTYPE svg PUBLIC "-//W3C//DTD SVG 1.1//EN"
 "http://www.w3.org/Graphics/SVG/1.1/DTD/svg11.dtd">
<!-- Generated by graphviz version 2.49.3 (20211027.1534)
 -->
<!-- Title: NPCController Pages: 1 -->
<svg width="178pt" height="84pt"
 viewBox="0.00 0.00 178.00 84.00" xmlns="http://www.w3.org/2000/svg" xmlns:xlink="http://www.w3.org/1999/xlink">
<g id="graph0" class="graph" transform="scale(1 1) rotate(0) translate(4 80)">
<title>NPCController</title>
<polygon fill="white" stroke="transparent" points="-4,4 -4,-80 174,-80 174,4 -4,4"/>
<!-- Node1 -->
<g id="node1" class="node">
<title>Node1</title>
<g id="a_node1"><a xlink:title="The NPCController class manages all NPC&#45;related logic">
<polygon fill="#bfbfbf" stroke="black" points="49.5,-0.5 49.5,-19.5 128.5,-19.5 128.5,-0.5 49.5,-0.5"/>
<text text-anchor="middle" x="89" y="-7.5" font-family="Helvetica,sans-Serif" font-size="10.00">NPCController</text>
</a>
</g>
</g>
<!-- Node2 -->
<g id="node2" class="node">
<title>Node2</title>
<g id="a_node2"><a xlink:title=" ">
<polygon fill="white" stroke="#bfbfbf" points="0,-56.5 0,-75.5 84,-75.5 84,-56.5 0,-56.5"/>
<text text-anchor="middle" x="42" y="-63.5" font-family="Helvetica,sans-Serif" font-size="10.00">MonoBehaviour</text>
</a>
</g>
</g>
<!-- Node2&#45;&gt;Node1 -->
<g id="edge1" class="edge">
<title>Node2&#45;&gt;Node1</title>
<path fill="none" stroke="midnightblue" d="M56.42,-48.43C64.66,-38.97 74.65,-27.48 81.38,-19.75"/>
<polygon fill="midnightblue" stroke="midnightblue" points="53.69,-46.24 49.76,-56.08 58.97,-50.84 53.69,-46.24"/>
</g>
<!-- Node3 -->
<g id="node3" class="node">
<title>Node3</title>
<g id="a_node3"><a xlink:href="interfaceInteractable.html" target="_top" xlink:title=" ">
<polygon fill="white" stroke="black" points="102,-56.5 102,-75.5 170,-75.5 170,-56.5 102,-56.5"/>
<text text-anchor="middle" x="136" y="-63.5" font-family="Helvetica,sans-Serif" font-size="10.00">Interactable</text>
</a>
</g>
</g>
<!-- Node3&#45;&gt;Node1 -->
<g id="edge2" class="edge">
<title>Node3&#45;&gt;Node1</title>
<path fill="none" stroke="midnightblue" d="M121.58,-48.43C113.34,-38.97 103.35,-27.48 96.62,-19.75"/>
<polygon fill="midnightblue" stroke="midnightblue" points="119.03,-50.84 128.24,-56.08 124.31,-46.24 119.03,-50.84"/>
</g>
</g>
</svg>
