<?xml version="1.0" encoding="UTF-8" standalone="no"?>
<!DOCTYPE svg PUBLIC "-//W3C//DTD SVG 1.1//EN"
 "http://www.w3.org/Graphics/SVG/1.1/DTD/svg11.dtd">
<!-- Generated by graphviz version 2.49.3 (20211027.1534)
 -->
<!-- Title: ItemBase Pages: 1 -->
<svg width="178pt" height="140pt"
 viewBox="0.00 0.00 177.50 140.00" xmlns="http://www.w3.org/2000/svg" xmlns:xlink="http://www.w3.org/1999/xlink">
<g id="graph0" class="graph" transform="scale(1 1) rotate(0) translate(4 136)">
<title>ItemBase</title>
<polygon fill="white" stroke="transparent" points="-4,4 -4,-136 173.5,-136 173.5,4 -4,4"/>
<!-- Node1 -->
<g id="node1" class="node">
<title>Node1</title>
<g id="a_node1"><a xlink:title="The ItemBase class manage the basic data for all items">
<polygon fill="#bfbfbf" stroke="black" points="54.5,-56.5 54.5,-75.5 113.5,-75.5 113.5,-56.5 54.5,-56.5"/>
<text text-anchor="middle" x="84" y="-63.5" font-family="Helvetica,sans-Serif" font-size="10.00">ItemBase</text>
</a>
</g>
</g>
<!-- Node3 -->
<g id="node3" class="node">
<title>Node3</title>
<g id="a_node3"><a xlink:href="classPokeballItem.html" target="_top" xlink:title="The PokeballItem manages all pokeball&#45;related logic">
<polygon fill="white" stroke="black" points="0,-0.5 0,-19.5 74,-19.5 74,-0.5 0,-0.5"/>
<text text-anchor="middle" x="37" y="-7.5" font-family="Helvetica,sans-Serif" font-size="10.00">PokeballItem</text>
</a>
</g>
</g>
<!-- Node1&#45;&gt;Node3 -->
<g id="edge2" class="edge">
<title>Node1&#45;&gt;Node3</title>
<path fill="none" stroke="midnightblue" d="M69.58,-48.43C61.34,-38.97 51.35,-27.48 44.62,-19.75"/>
<polygon fill="midnightblue" stroke="midnightblue" points="67.03,-50.84 76.24,-56.08 72.31,-46.24 67.03,-50.84"/>
</g>
<!-- Node4 -->
<g id="node4" class="node">
<title>Node4</title>
<g id="a_node4"><a xlink:href="classRecoveryItem.html" target="_top" xlink:title="The RecoveryItem class manages all the recovery item logic">
<polygon fill="white" stroke="black" points="92.5,-0.5 92.5,-19.5 169.5,-19.5 169.5,-0.5 92.5,-0.5"/>
<text text-anchor="middle" x="131" y="-7.5" font-family="Helvetica,sans-Serif" font-size="10.00">RecoveryItem</text>
</a>
</g>
</g>
<!-- Node1&#45;&gt;Node4 -->
<g id="edge3" class="edge">
<title>Node1&#45;&gt;Node4</title>
<path fill="none" stroke="midnightblue" d="M98.42,-48.43C106.66,-38.97 116.65,-27.48 123.38,-19.75"/>
<polygon fill="midnightblue" stroke="midnightblue" points="95.69,-46.24 91.76,-56.08 100.97,-50.84 95.69,-46.24"/>
</g>
<!-- Node2 -->
<g id="node2" class="node">
<title>Node2</title>
<g id="a_node2"><a xlink:title=" ">
<polygon fill="white" stroke="#bfbfbf" points="39.5,-112.5 39.5,-131.5 128.5,-131.5 128.5,-112.5 39.5,-112.5"/>
<text text-anchor="middle" x="84" y="-119.5" font-family="Helvetica,sans-Serif" font-size="10.00">ScriptableObject</text>
</a>
</g>
</g>
<!-- Node2&#45;&gt;Node1 -->
<g id="edge1" class="edge">
<title>Node2&#45;&gt;Node1</title>
<path fill="none" stroke="midnightblue" d="M84,-101.8C84,-92.91 84,-82.78 84,-75.75"/>
<polygon fill="midnightblue" stroke="midnightblue" points="80.5,-102.08 84,-112.08 87.5,-102.08 80.5,-102.08"/>
</g>
</g>
</svg>
