<?xml version="1.0" encoding="UTF-8" standalone="no"?>
<!DOCTYPE svg PUBLIC "-//W3C//DTD SVG 1.1//EN"
 "http://www.w3.org/Graphics/SVG/1.1/DTD/svg11.dtd">
<!-- Generated by graphviz version 2.49.3 (20211027.1534)
 -->
<!-- Title: TMItem Pages: 1 -->
<svg width="97pt" height="140pt"
 viewBox="0.00 0.00 97.00 140.00" xmlns="http://www.w3.org/2000/svg" xmlns:xlink="http://www.w3.org/1999/xlink">
<g id="graph0" class="graph" transform="scale(1 1) rotate(0) translate(4 136)">
<title>TMItem</title>
<polygon fill="white" stroke="transparent" points="-4,4 -4,-136 93,-136 93,4 -4,4"/>
<!-- Node1 -->
<g id="node1" class="node">
<title>Node1</title>
<g id="a_node1"><a xlink:title="THe TMITem class manages all the TM items in the game. TM items are used to teach pokemon new moves">
<polygon fill="#bfbfbf" stroke="black" points="19.5,-0.5 19.5,-19.5 69.5,-19.5 69.5,-0.5 19.5,-0.5"/>
<text text-anchor="middle" x="44.5" y="-7.5" font-family="Helvetica,sans-Serif" font-size="10.00">TMItem</text>
</a>
</g>
</g>
<!-- Node2 -->
<g id="node2" class="node">
<title>Node2</title>
<g id="a_node2"><a xlink:href="classItemBase.html" target="_top" xlink:title="The ItemBase class manage the basic data for all items">
<polygon fill="white" stroke="black" points="15,-56.5 15,-75.5 74,-75.5 74,-56.5 15,-56.5"/>
<text text-anchor="middle" x="44.5" y="-63.5" font-family="Helvetica,sans-Serif" font-size="10.00">ItemBase</text>
</a>
</g>
</g>
<!-- Node2&#45;&gt;Node1 -->
<g id="edge1" class="edge">
<title>Node2&#45;&gt;Node1</title>
<path fill="none" stroke="midnightblue" d="M44.5,-45.8C44.5,-36.91 44.5,-26.78 44.5,-19.75"/>
<polygon fill="midnightblue" stroke="midnightblue" points="41,-46.08 44.5,-56.08 48,-46.08 41,-46.08"/>
</g>
<!-- Node3 -->
<g id="node3" class="node">
<title>Node3</title>
<g id="a_node3"><a xlink:title=" ">
<polygon fill="white" stroke="#bfbfbf" points="0,-112.5 0,-131.5 89,-131.5 89,-112.5 0,-112.5"/>
<text text-anchor="middle" x="44.5" y="-119.5" font-family="Helvetica,sans-Serif" font-size="10.00">ScriptableObject</text>
</a>
</g>
</g>
<!-- Node3&#45;&gt;Node2 -->
<g id="edge2" class="edge">
<title>Node3&#45;&gt;Node2</title>
<path fill="none" stroke="midnightblue" d="M44.5,-101.8C44.5,-92.91 44.5,-82.78 44.5,-75.75"/>
<polygon fill="midnightblue" stroke="midnightblue" points="41,-102.08 44.5,-112.08 48,-102.08 41,-102.08"/>
</g>
</g>
</svg>
