<?xml version="1.0" encoding="UTF-8" standalone="no"?>
<!DOCTYPE svg PUBLIC "-//W3C//DTD SVG 1.1//EN"
 "http://www.w3.org/Graphics/SVG/1.1/DTD/svg11.dtd">
<!-- Generated by graphviz version 2.49.3 (20211027.1534)
 -->
<!-- Title: Graphical Class Hierarchy Pages: 1 -->
<svg width="326pt" height="123pt"
 viewBox="0.00 0.00 326.00 123.00" xmlns="http://www.w3.org/2000/svg" xmlns:xlink="http://www.w3.org/1999/xlink">
<g id="graph0" class="graph" transform="scale(1 1) rotate(0) translate(4 119)">
<title>Graphical Class Hierarchy</title>
<polygon fill="white" stroke="transparent" points="-4,4 -4,-119 322,-119 322,4 -4,4"/>
<!-- Node54 -->
<g id="node1" class="node">
<title>Node54</title>
<g id="a_node1"><a xlink:title=" ">
<polygon fill="white" stroke="#bfbfbf" points="0,-38.5 0,-57.5 89,-57.5 89,-38.5 0,-38.5"/>
<text text-anchor="middle" x="44.5" y="-45.5" font-family="Helvetica,sans-Serif" font-size="10.00">ScriptableObject</text>
</a>
</g>
</g>
<!-- Node0 -->
<g id="node2" class="node">
<title>Node0</title>
<g id="a_node2"><a xlink:href="classItemBase.html" target="_top" xlink:title="The ItemBase class manage the basic data for all items">
<polygon fill="white" stroke="black" points="135.5,-76.5 135.5,-95.5 194.5,-95.5 194.5,-76.5 135.5,-76.5"/>
<text text-anchor="middle" x="165" y="-83.5" font-family="Helvetica,sans-Serif" font-size="10.00">ItemBase</text>
</a>
</g>
</g>
<!-- Node54&#45;&gt;Node0 -->
<g id="edge1" class="edge">
<title>Node54&#45;&gt;Node0</title>
<path fill="none" stroke="midnightblue" d="M85.27,-60.75C101.67,-66.01 120.31,-71.99 135.33,-76.81"/>
<polygon fill="midnightblue" stroke="midnightblue" points="85.99,-57.31 75.4,-57.59 83.86,-63.98 85.99,-57.31"/>
</g>
<!-- Node58 -->
<g id="node5" class="node">
<title>Node58</title>
<g id="a_node5"><a xlink:href="classMoveBase.html" target="_top" xlink:title="The MoveBase class stores all data for a move">
<polygon fill="white" stroke="black" points="133.5,-38.5 133.5,-57.5 196.5,-57.5 196.5,-38.5 133.5,-38.5"/>
<text text-anchor="middle" x="165" y="-45.5" font-family="Helvetica,sans-Serif" font-size="10.00">MoveBase</text>
</a>
</g>
</g>
<!-- Node54&#45;&gt;Node58 -->
<g id="edge4" class="edge">
<title>Node54&#45;&gt;Node58</title>
<path fill="none" stroke="midnightblue" d="M99.4,-48C111.04,-48 122.95,-48 133.33,-48"/>
<polygon fill="midnightblue" stroke="midnightblue" points="99.29,-44.5 89.29,-48 99.29,-51.5 99.29,-44.5"/>
</g>
<!-- Node59 -->
<g id="node6" class="node">
<title>Node59</title>
<g id="a_node6"><a xlink:href="classPokemonBase.html" target="_top" xlink:title="The PokemonBase class holds all data for all pokemon">
<polygon fill="white" stroke="black" points="125,-0.5 125,-19.5 205,-19.5 205,-0.5 125,-0.5"/>
<text text-anchor="middle" x="165" y="-7.5" font-family="Helvetica,sans-Serif" font-size="10.00">PokemonBase</text>
</a>
</g>
</g>
<!-- Node54&#45;&gt;Node59 -->
<g id="edge5" class="edge">
<title>Node54&#45;&gt;Node59</title>
<path fill="none" stroke="midnightblue" d="M85.04,-35.32C101.05,-30.19 119.23,-24.36 134.11,-19.59"/>
<polygon fill="midnightblue" stroke="midnightblue" points="83.86,-32.02 75.4,-38.41 85.99,-38.69 83.86,-32.02"/>
</g>
<!-- Node1 -->
<g id="node3" class="node">
<title>Node1</title>
<g id="a_node3"><a xlink:href="classPokeballItem.html" target="_top" xlink:title="The PokeballItem manages all pokeball&#45;related logic">
<polygon fill="white" stroke="black" points="242.5,-95.5 242.5,-114.5 316.5,-114.5 316.5,-95.5 242.5,-95.5"/>
<text text-anchor="middle" x="279.5" y="-102.5" font-family="Helvetica,sans-Serif" font-size="10.00">PokeballItem</text>
</a>
</g>
</g>
<!-- Node0&#45;&gt;Node1 -->
<g id="edge2" class="edge">
<title>Node0&#45;&gt;Node1</title>
<path fill="none" stroke="midnightblue" d="M204.57,-92.51C216.76,-94.57 230.18,-96.84 242.2,-98.87"/>
<polygon fill="midnightblue" stroke="midnightblue" points="205.12,-89.06 194.68,-90.84 203.96,-95.96 205.12,-89.06"/>
</g>
<!-- Node2 -->
<g id="node4" class="node">
<title>Node2</title>
<g id="a_node4"><a xlink:href="classRecoveryItem.html" target="_top" xlink:title="The RecoveryItem class manages all the recovery item logic">
<polygon fill="white" stroke="black" points="241,-57.5 241,-76.5 318,-76.5 318,-57.5 241,-57.5"/>
<text text-anchor="middle" x="279.5" y="-64.5" font-family="Helvetica,sans-Serif" font-size="10.00">RecoveryItem</text>
</a>
</g>
</g>
<!-- Node0&#45;&gt;Node2 -->
<g id="edge3" class="edge">
<title>Node0&#45;&gt;Node2</title>
<path fill="none" stroke="midnightblue" d="M204.65,-79.47C216.39,-77.49 229.28,-75.31 240.95,-73.34"/>
<polygon fill="midnightblue" stroke="midnightblue" points="203.96,-76.04 194.68,-81.16 205.12,-82.94 203.96,-76.04"/>
</g>
</g>
</svg>
