<?xml version="1.0" encoding="UTF-8" standalone="no"?>
<!DOCTYPE svg PUBLIC "-//W3C//DTD SVG 1.1//EN"
 "http://www.w3.org/Graphics/SVG/1.1/DTD/svg11.dtd">
<!-- Generated by graphviz version 2.49.3 (20211027.1534)
 -->
<!-- Title: Graphical Class Hierarchy Pages: 1 -->
<svg width="267pt" height="1282pt"
 viewBox="0.00 0.00 267.00 1282.00" xmlns="http://www.w3.org/2000/svg" xmlns:xlink="http://www.w3.org/1999/xlink">
<g id="graph0" class="graph" transform="scale(1 1) rotate(0) translate(4 1278)">
<title>Graphical Class Hierarchy</title>
<polygon fill="white" stroke="transparent" points="-4,4 -4,-1278 263,-1278 263,4 -4,4"/>
<!-- Node0 -->
<g id="node1" class="node">
<title>Node0</title>
<g id="a_node1"><a xlink:href="interfaceInteractable.html" target="_top" xlink:title=" ">
<polygon fill="white" stroke="black" points="13.5,-1244.5 13.5,-1263.5 81.5,-1263.5 81.5,-1244.5 13.5,-1244.5"/>
<text text-anchor="middle" x="47.5" y="-1251.5" font-family="Helvetica,sans-Serif" font-size="10.00">Interactable</text>
</a>
</g>
</g>
<!-- Node1 -->
<g id="node2" class="node">
<title>Node1</title>
<g id="a_node2"><a xlink:href="classNPCController.html" target="_top" xlink:title="The NPCController class manages all NPC&#45;related logic">
<polygon fill="white" stroke="black" points="155.5,-1216.5 155.5,-1235.5 234.5,-1235.5 234.5,-1216.5 155.5,-1216.5"/>
<text text-anchor="middle" x="195" y="-1223.5" font-family="Helvetica,sans-Serif" font-size="10.00">NPCController</text>
</a>
</g>
</g>
<!-- Node0&#45;&gt;Node1 -->
<g id="edge1" class="edge">
<title>Node0&#45;&gt;Node1</title>
<path fill="none" stroke="midnightblue" d="M91.44,-1245.74C111.73,-1241.83 135.75,-1237.21 155.45,-1233.42"/>
<polygon fill="midnightblue" stroke="midnightblue" points="90.67,-1242.32 81.52,-1247.65 92,-1249.19 90.67,-1242.32"/>
</g>
<!-- Node2 -->
<g id="node3" class="node">
<title>Node2</title>
<g id="a_node3"><a xlink:href="classTrainerController.html" target="_top" xlink:title="The TrainerController class manages all trainer&#45;related logic">
<polygon fill="white" stroke="black" points="151,-1254.5 151,-1273.5 239,-1273.5 239,-1254.5 151,-1254.5"/>
<text text-anchor="middle" x="195" y="-1261.5" font-family="Helvetica,sans-Serif" font-size="10.00">TrainerController</text>
</a>
</g>
</g>
<!-- Node0&#45;&gt;Node2 -->
<g id="edge2" class="edge">
<title>Node0&#45;&gt;Node2</title>
<path fill="none" stroke="midnightblue" d="M91.55,-1256.96C110.27,-1258.25 132.17,-1259.75 150.89,-1261.04"/>
<polygon fill="midnightblue" stroke="midnightblue" points="91.73,-1253.46 81.52,-1256.27 91.25,-1260.45 91.73,-1253.46"/>
</g>
<!-- Node8 -->
<g id="node4" class="node">
<title>Node8</title>
<g id="a_node4"><a xlink:href="interfaceIPlayerTriggerable.html" target="_top" xlink:title=" ">
<polygon fill="white" stroke="black" points="0,-1083.5 0,-1102.5 95,-1102.5 95,-1083.5 0,-1083.5"/>
<text text-anchor="middle" x="47.5" y="-1090.5" font-family="Helvetica,sans-Serif" font-size="10.00">IPlayerTriggerable</text>
</a>
</g>
</g>
<!-- Node9 -->
<g id="node5" class="node">
<title>Node9</title>
<g id="a_node5"><a xlink:href="classLocationPortal.html" target="_top" xlink:title="The LocationPortal manages all logic for the location portals">
<polygon fill="white" stroke="black" points="155,-1140.5 155,-1159.5 235,-1159.5 235,-1140.5 155,-1140.5"/>
<text text-anchor="middle" x="195" y="-1147.5" font-family="Helvetica,sans-Serif" font-size="10.00">LocationPortal</text>
</a>
</g>
</g>
<!-- Node8&#45;&gt;Node9 -->
<g id="edge3" class="edge">
<title>Node8&#45;&gt;Node9</title>
<path fill="none" stroke="midnightblue" d="M76.39,-1107.02C92.18,-1114.66 112.44,-1123.97 131,-1131 140.08,-1134.44 150.08,-1137.69 159.38,-1140.5"/>
<polygon fill="midnightblue" stroke="midnightblue" points="77.71,-1103.77 67.19,-1102.51 74.63,-1110.05 77.71,-1103.77"/>
</g>
<!-- Node10 -->
<g id="node6" class="node">
<title>Node10</title>
<g id="a_node6"><a xlink:href="classLongGrass.html" target="_top" xlink:title=" ">
<polygon fill="white" stroke="black" points="162.5,-1102.5 162.5,-1121.5 227.5,-1121.5 227.5,-1102.5 162.5,-1102.5"/>
<text text-anchor="middle" x="195" y="-1109.5" font-family="Helvetica,sans-Serif" font-size="10.00">LongGrass</text>
</a>
</g>
</g>
<!-- Node8&#45;&gt;Node10 -->
<g id="edge4" class="edge">
<title>Node8&#45;&gt;Node10</title>
<path fill="none" stroke="midnightblue" d="M105.31,-1100.42C124.72,-1102.95 145.73,-1105.7 162.42,-1107.88"/>
<polygon fill="midnightblue" stroke="midnightblue" points="105.71,-1096.94 95.34,-1099.12 104.8,-1103.88 105.71,-1096.94"/>
</g>
<!-- Node11 -->
<g id="node7" class="node">
<title>Node11</title>
<g id="a_node7"><a xlink:href="classPortal.html" target="_top" xlink:title="The Portal class manages all portal&#45;related logic">
<polygon fill="white" stroke="black" points="174,-1064.5 174,-1083.5 216,-1083.5 216,-1064.5 174,-1064.5"/>
<text text-anchor="middle" x="195" y="-1071.5" font-family="Helvetica,sans-Serif" font-size="10.00">Portal</text>
</a>
</g>
</g>
<!-- Node8&#45;&gt;Node11 -->
<g id="edge5" class="edge">
<title>Node8&#45;&gt;Node11</title>
<path fill="none" stroke="midnightblue" d="M105.52,-1085.55C129.71,-1082.39 156.34,-1078.92 174,-1076.61"/>
<polygon fill="midnightblue" stroke="midnightblue" points="104.8,-1082.12 95.34,-1086.88 105.71,-1089.06 104.8,-1082.12"/>
</g>
<!-- Node12 -->
<g id="node8" class="node">
<title>Node12</title>
<g id="a_node8"><a xlink:href="classTrainerFOV.html" target="_top" xlink:title="The TrainerFOV class manages the FOV of all trainers">
<polygon fill="white" stroke="black" points="161.5,-1026.5 161.5,-1045.5 228.5,-1045.5 228.5,-1026.5 161.5,-1026.5"/>
<text text-anchor="middle" x="195" y="-1033.5" font-family="Helvetica,sans-Serif" font-size="10.00">TrainerFOV</text>
</a>
</g>
</g>
<!-- Node8&#45;&gt;Node12 -->
<g id="edge6" class="edge">
<title>Node8&#45;&gt;Node12</title>
<path fill="none" stroke="midnightblue" d="M76.39,-1078.98C92.18,-1071.34 112.44,-1062.03 131,-1055 140.72,-1051.32 151.49,-1047.85 161.34,-1044.91"/>
<polygon fill="midnightblue" stroke="midnightblue" points="74.63,-1075.95 67.19,-1083.49 77.71,-1082.23 74.63,-1075.95"/>
</g>
<!-- Node13 -->
<g id="node9" class="node">
<title>Node13</title>
<g id="a_node9"><a xlink:href="interfaceISavable.html" target="_top" xlink:title=" ">
<polygon fill="white" stroke="black" points="20,-1197.5 20,-1216.5 75,-1216.5 75,-1197.5 20,-1197.5"/>
<text text-anchor="middle" x="47.5" y="-1204.5" font-family="Helvetica,sans-Serif" font-size="10.00">ISavable</text>
</a>
</g>
</g>
<!-- Node13&#45;&gt;Node2 -->
<g id="edge8" class="edge">
<title>Node13&#45;&gt;Node2</title>
<path fill="none" stroke="midnightblue" d="M76.39,-1221.02C92.18,-1228.66 112.44,-1237.97 131,-1245 140.08,-1248.44 150.08,-1251.69 159.38,-1254.5"/>
<polygon fill="midnightblue" stroke="midnightblue" points="77.71,-1217.77 67.19,-1216.51 74.63,-1224.05 77.71,-1217.77"/>
</g>
<!-- Node14 -->
<g id="node10" class="node">
<title>Node14</title>
<g id="a_node10"><a xlink:href="classPlayerController.html" target="_top" xlink:title="The PlayerController manages all player&#45;related logic">
<polygon fill="white" stroke="black" points="152.5,-1178.5 152.5,-1197.5 237.5,-1197.5 237.5,-1178.5 152.5,-1178.5"/>
<text text-anchor="middle" x="195" y="-1185.5" font-family="Helvetica,sans-Serif" font-size="10.00">PlayerController</text>
</a>
</g>
</g>
<!-- Node13&#45;&gt;Node14 -->
<g id="edge7" class="edge">
<title>Node13&#45;&gt;Node14</title>
<path fill="none" stroke="midnightblue" d="M85.35,-1202.19C105.76,-1199.52 131.21,-1196.2 152.34,-1193.44"/>
<polygon fill="midnightblue" stroke="midnightblue" points="84.65,-1198.75 75.19,-1203.52 85.56,-1205.69 84.65,-1198.75"/>
</g>
<!-- Node17 -->
<g id="node11" class="node">
<title>Node17</title>
<g id="a_node11"><a xlink:title=" ">
<polygon fill="white" stroke="#bfbfbf" points="5.5,-627.5 5.5,-646.5 89.5,-646.5 89.5,-627.5 5.5,-627.5"/>
<text text-anchor="middle" x="47.5" y="-634.5" font-family="Helvetica,sans-Serif" font-size="10.00">MonoBehaviour</text>
</a>
</g>
</g>
<!-- Node17&#45;&gt;Node1 -->
<g id="edge32" class="edge">
<title>Node17&#45;&gt;Node1</title>
<path fill="none" stroke="midnightblue" d="M50.08,-656.5C57.97,-751.64 94.09,-1164.13 131,-1207 137.26,-1214.27 146.2,-1218.82 155.38,-1221.64"/>
<polygon fill="midnightblue" stroke="midnightblue" points="53.57,-656.2 49.26,-646.52 46.59,-656.77 53.57,-656.2"/>
</g>
<!-- Node17&#45;&gt;Node2 -->
<g id="edge41" class="edge">
<title>Node17&#45;&gt;Node2</title>
<path fill="none" stroke="midnightblue" d="M50.58,-656.77C61.37,-758.8 111.32,-1221.93 131,-1245 136.19,-1251.08 143.25,-1255.26 150.78,-1258.12"/>
<polygon fill="midnightblue" stroke="midnightblue" points="54.04,-656.21 49.51,-646.63 47.08,-656.94 54.04,-656.21"/>
</g>
<!-- Node17&#45;&gt;Node9 -->
<g id="edge27" class="edge">
<title>Node17&#45;&gt;Node9</title>
<path fill="none" stroke="midnightblue" d="M49.1,-656.93C52.01,-740.1 67.22,-1058.53 131,-1131 137.19,-1138.03 145.88,-1142.51 154.83,-1145.35"/>
<polygon fill="midnightblue" stroke="midnightblue" points="52.6,-656.69 48.77,-646.81 45.6,-656.92 52.6,-656.69"/>
</g>
<!-- Node17&#45;&gt;Node10 -->
<g id="edge28" class="edge">
<title>Node17&#45;&gt;Node10</title>
<path fill="none" stroke="midnightblue" d="M49.4,-656.9C53.39,-735.95 71.91,-1026.77 131,-1093 138.99,-1101.95 151.02,-1106.76 162.44,-1109.31"/>
<polygon fill="midnightblue" stroke="midnightblue" points="52.9,-656.64 48.92,-646.82 45.9,-656.98 52.9,-656.64"/>
</g>
<!-- Node17&#45;&gt;Node11 -->
<g id="edge37" class="edge">
<title>Node17&#45;&gt;Node11</title>
<path fill="none" stroke="midnightblue" d="M49.78,-657.12C54.94,-732.24 76.65,-995.05 131,-1055 141.82,-1066.93 159.83,-1071.49 173.83,-1073.17"/>
<polygon fill="midnightblue" stroke="midnightblue" points="53.24,-656.48 49.09,-646.74 46.26,-656.95 53.24,-656.48"/>
</g>
<!-- Node17&#45;&gt;Node12 -->
<g id="edge42" class="edge">
<title>Node17&#45;&gt;Node12</title>
<path fill="none" stroke="midnightblue" d="M50.17,-656.64C56.49,-726.71 81.2,-963.1 131,-1017 138.83,-1025.48 150.29,-1030.22 161.29,-1032.86"/>
<polygon fill="midnightblue" stroke="midnightblue" points="53.64,-656.2 49.28,-646.54 46.67,-656.81 53.64,-656.2"/>
</g>
<!-- Node17&#45;&gt;Node14 -->
<g id="edge35" class="edge">
<title>Node17&#45;&gt;Node14</title>
<path fill="none" stroke="midnightblue" d="M50.33,-656.91C58.95,-748.84 96.52,-1129.35 131,-1169 136.62,-1175.46 144.36,-1179.77 152.49,-1182.63"/>
<polygon fill="midnightblue" stroke="midnightblue" points="53.8,-656.38 49.39,-646.75 46.83,-657.03 53.8,-656.38"/>
</g>
<!-- Node18 -->
<g id="node12" class="node">
<title>Node18</title>
<g id="a_node12"><a xlink:href="classBattleDialogBox.html" target="_top" xlink:title="The BattleDialogBox manages the dialog boxes in the battle scene">
<polygon fill="white" stroke="black" points="152,-190.5 152,-209.5 238,-209.5 238,-190.5 152,-190.5"/>
<text text-anchor="middle" x="195" y="-197.5" font-family="Helvetica,sans-Serif" font-size="10.00">BattleDialogBox</text>
</a>
</g>
</g>
<!-- Node17&#45;&gt;Node18 -->
<g id="edge9" class="edge">
<title>Node17&#45;&gt;Node18</title>
<path fill="none" stroke="midnightblue" d="M49.78,-616.88C54.94,-541.76 76.65,-278.95 131,-219 136.52,-212.91 143.92,-208.74 151.71,-205.89"/>
<polygon fill="midnightblue" stroke="midnightblue" points="46.26,-617.05 49.09,-627.26 53.24,-617.52 46.26,-617.05"/>
</g>
<!-- Node19 -->
<g id="node13" class="node">
<title>Node19</title>
<g id="a_node13"><a xlink:href="classBattleHud.html" target="_top" xlink:title="The BattleHud class manages all the HUD&#39;s in the battle scene">
<polygon fill="white" stroke="black" points="165,-152.5 165,-171.5 225,-171.5 225,-152.5 165,-152.5"/>
<text text-anchor="middle" x="195" y="-159.5" font-family="Helvetica,sans-Serif" font-size="10.00">BattleHud</text>
</a>
</g>
</g>
<!-- Node17&#45;&gt;Node19 -->
<g id="edge10" class="edge">
<title>Node17&#45;&gt;Node19</title>
<path fill="none" stroke="midnightblue" d="M49.4,-617.1C53.39,-538.05 71.91,-247.23 131,-181 139.52,-171.45 152.64,-166.62 164.71,-164.21"/>
<polygon fill="midnightblue" stroke="midnightblue" points="45.9,-617.02 48.92,-627.18 52.9,-617.36 45.9,-617.02"/>
</g>
<!-- Node20 -->
<g id="node14" class="node">
<title>Node20</title>
<g id="a_node14"><a xlink:href="classBattleSystem.html" target="_top" xlink:title="The BattleSystem class manages the core battle scene logic">
<polygon fill="white" stroke="black" points="157.5,-114.5 157.5,-133.5 232.5,-133.5 232.5,-114.5 157.5,-114.5"/>
<text text-anchor="middle" x="195" y="-121.5" font-family="Helvetica,sans-Serif" font-size="10.00">BattleSystem</text>
</a>
</g>
</g>
<!-- Node17&#45;&gt;Node20 -->
<g id="edge11" class="edge">
<title>Node17&#45;&gt;Node20</title>
<path fill="none" stroke="midnightblue" d="M49.1,-617.07C52.01,-533.9 67.22,-215.47 131,-143 137.79,-135.28 147.6,-130.64 157.45,-127.87"/>
<polygon fill="midnightblue" stroke="midnightblue" points="45.6,-617.08 48.77,-627.19 52.6,-617.31 45.6,-617.08"/>
</g>
<!-- Node21 -->
<g id="node15" class="node">
<title>Node21</title>
<g id="a_node15"><a xlink:href="classBattleUnit.html" target="_top" xlink:title="The BattleUnit class manages a unit (pokemon) in the battle scene">
<polygon fill="white" stroke="black" points="165,-76.5 165,-95.5 225,-95.5 225,-76.5 165,-76.5"/>
<text text-anchor="middle" x="195" y="-83.5" font-family="Helvetica,sans-Serif" font-size="10.00">BattleUnit</text>
</a>
</g>
</g>
<!-- Node17&#45;&gt;Node21 -->
<g id="edge12" class="edge">
<title>Node17&#45;&gt;Node21</title>
<path fill="none" stroke="midnightblue" d="M48.84,-617.23C50.72,-530.4 62.46,-183.8 131,-105 139.47,-95.26 152.74,-90.42 164.92,-88.04"/>
<polygon fill="midnightblue" stroke="midnightblue" points="45.34,-617.23 48.64,-627.3 52.34,-617.37 45.34,-617.23"/>
</g>
<!-- Node22 -->
<g id="node16" class="node">
<title>Node22</title>
<g id="a_node16"><a xlink:href="classCharacter.html" target="_top" xlink:title="The Character class manages all character&#45;related logic">
<polygon fill="white" stroke="black" points="165.5,-38.5 165.5,-57.5 224.5,-57.5 224.5,-38.5 165.5,-38.5"/>
<text text-anchor="middle" x="195" y="-45.5" font-family="Helvetica,sans-Serif" font-size="10.00">Character</text>
</a>
</g>
</g>
<!-- Node17&#45;&gt;Node22 -->
<g id="edge13" class="edge">
<title>Node17&#45;&gt;Node22</title>
<path fill="none" stroke="midnightblue" d="M48.61,-617.28C49.52,-526.8 57.72,-152.12 131,-67 139.5,-57.13 152.92,-52.28 165.2,-49.94"/>
<polygon fill="midnightblue" stroke="midnightblue" points="45.11,-617.47 48.53,-627.49 52.11,-617.52 45.11,-617.47"/>
</g>
<!-- Node23 -->
<g id="node17" class="node">
<title>Node23</title>
<g id="a_node17"><a xlink:href="classCharacterAnimator.html" target="_top" xlink:title="The CharacterAnimator class manages all character animations">
<polygon fill="white" stroke="black" points="146,-0.5 146,-19.5 244,-19.5 244,-0.5 146,-0.5"/>
<text text-anchor="middle" x="195" y="-7.5" font-family="Helvetica,sans-Serif" font-size="10.00">CharacterAnimator</text>
</a>
</g>
</g>
<!-- Node17&#45;&gt;Node23 -->
<g id="edge14" class="edge">
<title>Node17&#45;&gt;Node23</title>
<path fill="none" stroke="midnightblue" d="M48.41,-617.17C48.41,-522.85 53.01,-120.4 131,-29 135,-24.31 140.12,-20.75 145.71,-18.05"/>
<polygon fill="midnightblue" stroke="midnightblue" points="44.91,-617.33 48.43,-627.32 51.91,-617.31 44.91,-617.33"/>
</g>
<!-- Node24 -->
<g id="node18" class="node">
<title>Node24</title>
<g id="a_node18"><a xlink:href="classDialogManager.html" target="_top" xlink:title="The DialogManager class manages all the dialog&#45;related logic">
<polygon fill="white" stroke="black" points="154.5,-988.5 154.5,-1007.5 235.5,-1007.5 235.5,-988.5 154.5,-988.5"/>
<text text-anchor="middle" x="195" y="-995.5" font-family="Helvetica,sans-Serif" font-size="10.00">DialogManager</text>
</a>
</g>
</g>
<!-- Node17&#45;&gt;Node24 -->
<g id="edge15" class="edge">
<title>Node17&#45;&gt;Node24</title>
<path fill="none" stroke="midnightblue" d="M50.69,-656.76C58.34,-722.32 85.88,-931.27 131,-979 137.2,-985.56 145.57,-989.88 154.19,-992.72"/>
<polygon fill="midnightblue" stroke="midnightblue" points="54.14,-656.1 49.53,-646.56 47.18,-656.9 54.14,-656.1"/>
</g>
<!-- Node25 -->
<g id="node19" class="node">
<title>Node25</title>
<g id="a_node19"><a xlink:href="classEssentialObjects.html" target="_top" xlink:title="The EssentialObjects class manages the essential objects gameobject in the scene. This gameobject hol...">
<polygon fill="white" stroke="black" points="150,-950.5 150,-969.5 240,-969.5 240,-950.5 150,-950.5"/>
<text text-anchor="middle" x="195" y="-957.5" font-family="Helvetica,sans-Serif" font-size="10.00">EssentialObjects</text>
</a>
</g>
</g>
<!-- Node17&#45;&gt;Node25 -->
<g id="edge16" class="edge">
<title>Node17&#45;&gt;Node25</title>
<path fill="none" stroke="midnightblue" d="M47.74,-657C46.83,-710.75 51.97,-859.73 131,-941 136.18,-946.32 142.79,-950.17 149.77,-952.94"/>
<polygon fill="midnightblue" stroke="midnightblue" points="51.24,-656.86 48.01,-646.77 44.25,-656.68 51.24,-656.86"/>
</g>
<!-- Node26 -->
<g id="node20" class="node">
<title>Node26</title>
<g id="a_node20"><a xlink:href="classEssentialObjectsSpawner.html" target="_top" xlink:title="The EssentialObjectsSpawner manages the initiating of the EssentialObjects gameobject">
<polygon fill="white" stroke="black" points="131,-912.5 131,-931.5 259,-931.5 259,-912.5 131,-912.5"/>
<text text-anchor="middle" x="195" y="-919.5" font-family="Helvetica,sans-Serif" font-size="10.00">EssentialObjectsSpawner</text>
</a>
</g>
</g>
<!-- Node17&#45;&gt;Node26 -->
<g id="edge17" class="edge">
<title>Node17&#45;&gt;Node26</title>
<path fill="none" stroke="midnightblue" d="M48.66,-656.77C50.15,-705.7 60.94,-833.48 131,-903 134.89,-906.86 139.54,-909.94 144.52,-912.4"/>
<polygon fill="midnightblue" stroke="midnightblue" points="52.15,-656.52 48.45,-646.59 45.16,-656.66 52.15,-656.52"/>
</g>
<!-- Node27 -->
<g id="node21" class="node">
<title>Node27</title>
<g id="a_node21"><a xlink:href="classFader.html" target="_top" xlink:title="The Fader class manages the fading effects in the game">
<polygon fill="white" stroke="black" points="174.5,-874.5 174.5,-893.5 215.5,-893.5 215.5,-874.5 174.5,-874.5"/>
<text text-anchor="middle" x="195" y="-881.5" font-family="Helvetica,sans-Serif" font-size="10.00">Fader</text>
</a>
</g>
</g>
<!-- Node17&#45;&gt;Node27 -->
<g id="edge18" class="edge">
<title>Node17&#45;&gt;Node27</title>
<path fill="none" stroke="midnightblue" d="M49.86,-656.9C53.96,-700.91 69.99,-807.22 131,-865 142.69,-876.08 160.62,-880.72 174.36,-882.65"/>
<polygon fill="midnightblue" stroke="midnightblue" points="53.35,-656.57 49.04,-646.89 46.37,-657.14 53.35,-656.57"/>
</g>
<!-- Node28 -->
<g id="node22" class="node">
<title>Node28</title>
<g id="a_node22"><a xlink:href="classGameController.html" target="_top" xlink:title="The GameController class manages all core game logic">
<polygon fill="white" stroke="black" points="153,-836.5 153,-855.5 237,-855.5 237,-836.5 153,-836.5"/>
<text text-anchor="middle" x="195" y="-843.5" font-family="Helvetica,sans-Serif" font-size="10.00">GameController</text>
</a>
</g>
</g>
<!-- Node17&#45;&gt;Node28 -->
<g id="edge19" class="edge">
<title>Node17&#45;&gt;Node28</title>
<path fill="none" stroke="midnightblue" d="M51.42,-656.42C58.21,-694.75 78.67,-780.45 131,-827 137.23,-832.54 145.03,-836.47 153,-839.25"/>
<polygon fill="midnightblue" stroke="midnightblue" points="54.87,-655.83 49.79,-646.53 47.96,-656.97 54.87,-655.83"/>
</g>
<!-- Node29 -->
<g id="node23" class="node">
<title>Node29</title>
<g id="a_node23"><a xlink:href="classGameLayers.html" target="_top" xlink:title="The game layers class manages all the layers in the game">
<polygon fill="white" stroke="black" points="159,-798.5 159,-817.5 231,-817.5 231,-798.5 159,-798.5"/>
<text text-anchor="middle" x="195" y="-805.5" font-family="Helvetica,sans-Serif" font-size="10.00">GameLayers</text>
</a>
</g>
</g>
<!-- Node17&#45;&gt;Node29 -->
<g id="edge20" class="edge">
<title>Node17&#45;&gt;Node29</title>
<path fill="none" stroke="midnightblue" d="M53.78,-656.51C63.54,-688.87 87.48,-753.58 131,-789 138.97,-795.49 149.13,-799.77 158.94,-802.58"/>
<polygon fill="midnightblue" stroke="midnightblue" points="57.13,-655.51 51.01,-646.87 50.41,-657.45 57.13,-655.51"/>
</g>
<!-- Node30 -->
<g id="node24" class="node">
<title>Node30</title>
<g id="a_node24"><a xlink:href="classGlobalSettings.html" target="_top" xlink:title="The GlobalSettings class manages all global settings for the game">
<polygon fill="white" stroke="black" points="155,-760.5 155,-779.5 235,-779.5 235,-760.5 155,-760.5"/>
<text text-anchor="middle" x="195" y="-767.5" font-family="Helvetica,sans-Serif" font-size="10.00">GlobalSettings</text>
</a>
</g>
</g>
<!-- Node17&#45;&gt;Node30 -->
<g id="edge21" class="edge">
<title>Node17&#45;&gt;Node30</title>
<path fill="none" stroke="midnightblue" d="M57.23,-655.85C69.92,-681.2 95.84,-725.97 131,-751 138.07,-756.04 146.5,-759.76 154.85,-762.5"/>
<polygon fill="midnightblue" stroke="midnightblue" points="60.25,-654.06 52.75,-646.58 53.95,-657.11 60.25,-654.06"/>
</g>
<!-- Node31 -->
<g id="node25" class="node">
<title>Node31</title>
<g id="a_node25"><a xlink:href="classHPBar.html" target="_top" xlink:title="The HPBar class manages all HPBars">
<polygon fill="white" stroke="black" points="172,-722.5 172,-741.5 218,-741.5 218,-722.5 172,-722.5"/>
<text text-anchor="middle" x="195" y="-729.5" font-family="Helvetica,sans-Serif" font-size="10.00">HPBar</text>
</a>
</g>
</g>
<!-- Node17&#45;&gt;Node31 -->
<g id="edge22" class="edge">
<title>Node17&#45;&gt;Node31</title>
<path fill="none" stroke="midnightblue" d="M62.99,-654.3C78.25,-671.5 103.82,-697.49 131,-713 143.6,-720.19 159.2,-724.92 171.73,-727.87"/>
<polygon fill="midnightblue" stroke="midnightblue" points="65.55,-651.92 56.36,-646.65 60.26,-656.5 65.55,-651.92"/>
</g>
<!-- Node32 -->
<g id="node26" class="node">
<title>Node32</title>
<g id="a_node26"><a xlink:href="classInventory.html" target="_top" xlink:title="The Inventory class manages all Inventory&#45;related logic">
<polygon fill="white" stroke="black" points="167,-684.5 167,-703.5 223,-703.5 223,-684.5 167,-684.5"/>
<text text-anchor="middle" x="195" y="-691.5" font-family="Helvetica,sans-Serif" font-size="10.00">Inventory</text>
</a>
</g>
</g>
<!-- Node17&#45;&gt;Node32 -->
<g id="edge23" class="edge">
<title>Node17&#45;&gt;Node32</title>
<path fill="none" stroke="midnightblue" d="M76.39,-651.02C92.18,-658.66 112.44,-667.97 131,-675 142.54,-679.37 155.55,-683.44 166.75,-686.68"/>
<polygon fill="midnightblue" stroke="midnightblue" points="77.71,-647.77 67.19,-646.51 74.63,-654.05 77.71,-647.77"/>
</g>
<!-- Node33 -->
<g id="node27" class="node">
<title>Node33</title>
<g id="a_node27"><a xlink:href="classInventoryUI.html" target="_top" xlink:title="The InventoryUI class manages the inventory UI">
<polygon fill="white" stroke="black" points="161.5,-646.5 161.5,-665.5 228.5,-665.5 228.5,-646.5 161.5,-646.5"/>
<text text-anchor="middle" x="195" y="-653.5" font-family="Helvetica,sans-Serif" font-size="10.00">InventoryUI</text>
</a>
</g>
</g>
<!-- Node17&#45;&gt;Node33 -->
<g id="edge24" class="edge">
<title>Node17&#45;&gt;Node33</title>
<path fill="none" stroke="midnightblue" d="M99.92,-643.71C120.37,-646.38 143.28,-649.38 161.38,-651.74"/>
<polygon fill="midnightblue" stroke="midnightblue" points="100.17,-640.22 89.81,-642.39 99.27,-647.16 100.17,-640.22"/>
</g>
<!-- Node34 -->
<g id="node28" class="node">
<title>Node34</title>
<g id="a_node28"><a xlink:href="classInvisibleTileMap.html" target="_top" xlink:title=" ">
<polygon fill="white" stroke="black" points="151.5,-608.5 151.5,-627.5 238.5,-627.5 238.5,-608.5 151.5,-608.5"/>
<text text-anchor="middle" x="195" y="-615.5" font-family="Helvetica,sans-Serif" font-size="10.00">InvisibleTileMap</text>
</a>
</g>
</g>
<!-- Node17&#45;&gt;Node34 -->
<g id="edge25" class="edge">
<title>Node17&#45;&gt;Node34</title>
<path fill="none" stroke="midnightblue" d="M100.01,-630.27C116.81,-628.08 135.25,-625.67 151.33,-623.57"/>
<polygon fill="midnightblue" stroke="midnightblue" points="99.27,-626.84 89.81,-631.61 100.17,-633.78 99.27,-626.84"/>
</g>
<!-- Node35 -->
<g id="node29" class="node">
<title>Node35</title>
<g id="a_node29"><a xlink:href="classItemSlotUI.html" target="_top" xlink:title="The ItemSlotUI class manages all the ItemSlot UI">
<polygon fill="white" stroke="black" points="163,-570.5 163,-589.5 227,-589.5 227,-570.5 163,-570.5"/>
<text text-anchor="middle" x="195" y="-577.5" font-family="Helvetica,sans-Serif" font-size="10.00">ItemSlotUI</text>
</a>
</g>
</g>
<!-- Node17&#45;&gt;Node35 -->
<g id="edge26" class="edge">
<title>Node17&#45;&gt;Node35</title>
<path fill="none" stroke="midnightblue" d="M76.39,-622.98C92.18,-615.34 112.44,-606.03 131,-599 141.26,-595.11 152.68,-591.47 162.95,-588.43"/>
<polygon fill="midnightblue" stroke="midnightblue" points="74.63,-619.95 67.19,-627.49 77.71,-626.23 74.63,-619.95"/>
</g>
<!-- Node36 -->
<g id="node30" class="node">
<title>Node36</title>
<g id="a_node30"><a xlink:href="classMapArea.html" target="_top" xlink:title="The MapArea class manages all map&#45;related data">
<polygon fill="white" stroke="black" points="167,-532.5 167,-551.5 223,-551.5 223,-532.5 167,-532.5"/>
<text text-anchor="middle" x="195" y="-539.5" font-family="Helvetica,sans-Serif" font-size="10.00">MapArea</text>
</a>
</g>
</g>
<!-- Node17&#45;&gt;Node36 -->
<g id="edge29" class="edge">
<title>Node17&#45;&gt;Node36</title>
<path fill="none" stroke="midnightblue" d="M62.99,-619.7C78.25,-602.5 103.82,-576.51 131,-561 142.01,-554.71 155.32,-550.31 166.86,-547.33"/>
<polygon fill="midnightblue" stroke="midnightblue" points="60.26,-617.5 56.36,-627.35 65.55,-622.08 60.26,-617.5"/>
</g>
<!-- Node37 -->
<g id="node31" class="node">
<title>Node37</title>
<g id="a_node31"><a xlink:href="classMenuController.html" target="_top" xlink:title="The MenuController class manages all menu&#45;related logic">
<polygon fill="white" stroke="black" points="154,-494.5 154,-513.5 236,-513.5 236,-494.5 154,-494.5"/>
<text text-anchor="middle" x="195" y="-501.5" font-family="Helvetica,sans-Serif" font-size="10.00">MenuController</text>
</a>
</g>
</g>
<!-- Node17&#45;&gt;Node37 -->
<g id="edge30" class="edge">
<title>Node17&#45;&gt;Node37</title>
<path fill="none" stroke="midnightblue" d="M57.23,-618.15C69.92,-592.8 95.84,-548.03 131,-523 137.79,-518.16 145.84,-514.54 153.86,-511.83"/>
<polygon fill="midnightblue" stroke="midnightblue" points="53.95,-616.89 52.75,-627.42 60.25,-619.94 53.95,-616.89"/>
</g>
<!-- Node38 -->
<g id="node32" class="node">
<title>Node38</title>
<g id="a_node32"><a xlink:href="classMoveSelectionUI.html" target="_top" xlink:title="The MoveSelectionUI class manages the move selection UI in the battle scene">
<polygon fill="white" stroke="black" points="149,-456.5 149,-475.5 241,-475.5 241,-456.5 149,-456.5"/>
<text text-anchor="middle" x="195" y="-463.5" font-family="Helvetica,sans-Serif" font-size="10.00">MoveSelectionUI</text>
</a>
</g>
</g>
<!-- Node17&#45;&gt;Node38 -->
<g id="edge31" class="edge">
<title>Node17&#45;&gt;Node38</title>
<path fill="none" stroke="midnightblue" d="M53.78,-617.49C63.54,-585.13 87.48,-520.42 131,-485 136.23,-480.74 142.39,-477.44 148.78,-474.88"/>
<polygon fill="midnightblue" stroke="midnightblue" points="50.41,-616.55 51.01,-627.13 57.13,-618.49 50.41,-616.55"/>
</g>
<!-- Node39 -->
<g id="node33" class="node">
<title>Node39</title>
<g id="a_node33"><a xlink:href="classPartyMemberUI.html" target="_top" xlink:title="The PartyMemberUI class manages the individual party members UI in the party screen">
<polygon fill="white" stroke="black" points="152.5,-418.5 152.5,-437.5 237.5,-437.5 237.5,-418.5 152.5,-418.5"/>
<text text-anchor="middle" x="195" y="-425.5" font-family="Helvetica,sans-Serif" font-size="10.00">PartyMemberUI</text>
</a>
</g>
</g>
<!-- Node17&#45;&gt;Node39 -->
<g id="edge33" class="edge">
<title>Node17&#45;&gt;Node39</title>
<path fill="none" stroke="midnightblue" d="M51.42,-617.58C58.21,-579.25 78.67,-493.55 131,-447 137.06,-441.61 144.6,-437.75 152.34,-434.98"/>
<polygon fill="midnightblue" stroke="midnightblue" points="47.96,-617.03 49.79,-627.47 54.87,-618.17 47.96,-617.03"/>
</g>
<!-- Node40 -->
<g id="node34" class="node">
<title>Node40</title>
<g id="a_node34"><a xlink:href="classPartyScreen.html" target="_top" xlink:title="The PartyScreen text manages the core party screen logic">
<polygon fill="white" stroke="black" points="160,-380.5 160,-399.5 230,-399.5 230,-380.5 160,-380.5"/>
<text text-anchor="middle" x="195" y="-387.5" font-family="Helvetica,sans-Serif" font-size="10.00">PartyScreen</text>
</a>
</g>
</g>
<!-- Node17&#45;&gt;Node40 -->
<g id="edge34" class="edge">
<title>Node17&#45;&gt;Node40</title>
<path fill="none" stroke="midnightblue" d="M49.86,-617.1C53.96,-573.09 69.99,-466.78 131,-409 138.88,-401.54 149.59,-397 159.94,-394.24"/>
<polygon fill="midnightblue" stroke="midnightblue" points="46.37,-616.86 49.04,-627.11 53.35,-617.43 46.37,-616.86"/>
</g>
<!-- Node41 -->
<g id="node35" class="node">
<title>Node41</title>
<g id="a_node35"><a xlink:href="classPokemonParty.html" target="_top" xlink:title="The PokemonParty class manages all pokemon parties">
<polygon fill="white" stroke="black" points="155,-342.5 155,-361.5 235,-361.5 235,-342.5 155,-342.5"/>
<text text-anchor="middle" x="195" y="-349.5" font-family="Helvetica,sans-Serif" font-size="10.00">PokemonParty</text>
</a>
</g>
</g>
<!-- Node17&#45;&gt;Node41 -->
<g id="edge36" class="edge">
<title>Node17&#45;&gt;Node41</title>
<path fill="none" stroke="midnightblue" d="M48.66,-617.23C50.15,-568.3 60.94,-440.52 131,-371 137.49,-364.56 146.07,-360.29 154.81,-357.47"/>
<polygon fill="midnightblue" stroke="midnightblue" points="45.16,-617.34 48.45,-627.41 52.15,-617.48 45.16,-617.34"/>
</g>
<!-- Node42 -->
<g id="node36" class="node">
<title>Node42</title>
<g id="a_node36"><a xlink:href="classSavableEntity.html" target="_top" xlink:title=" ">
<polygon fill="white" stroke="black" points="157,-304.5 157,-323.5 233,-323.5 233,-304.5 157,-304.5"/>
<text text-anchor="middle" x="195" y="-311.5" font-family="Helvetica,sans-Serif" font-size="10.00">SavableEntity</text>
</a>
</g>
</g>
<!-- Node17&#45;&gt;Node42 -->
<g id="edge38" class="edge">
<title>Node17&#45;&gt;Node42</title>
<path fill="none" stroke="midnightblue" d="M47.74,-617C46.83,-563.25 51.97,-414.27 131,-333 137.93,-325.87 147.42,-321.4 156.94,-318.59"/>
<polygon fill="midnightblue" stroke="midnightblue" points="44.25,-617.32 48.01,-627.23 51.24,-617.14 44.25,-617.32"/>
</g>
<!-- Node43 -->
<g id="node37" class="node">
<title>Node43</title>
<g id="a_node37"><a xlink:href="classSavingSystem.html" target="_top" xlink:title=" ">
<polygon fill="white" stroke="black" points="155,-266.5 155,-285.5 235,-285.5 235,-266.5 155,-266.5"/>
<text text-anchor="middle" x="195" y="-273.5" font-family="Helvetica,sans-Serif" font-size="10.00">SavingSystem</text>
</a>
</g>
</g>
<!-- Node17&#45;&gt;Node43 -->
<g id="edge39" class="edge">
<title>Node17&#45;&gt;Node43</title>
<path fill="none" stroke="midnightblue" d="M50.69,-617.24C58.34,-551.68 85.88,-342.73 131,-295 137.36,-288.28 146,-283.9 154.84,-281.07"/>
<polygon fill="midnightblue" stroke="midnightblue" points="47.18,-617.1 49.53,-627.44 54.14,-617.9 47.18,-617.1"/>
</g>
<!-- Node44 -->
<g id="node38" class="node">
<title>Node44</title>
<g id="a_node38"><a xlink:href="classSceneDetails.html" target="_top" xlink:title="The SceneDetails class manages all data and details about a scene">
<polygon fill="white" stroke="black" points="158,-228.5 158,-247.5 232,-247.5 232,-228.5 158,-228.5"/>
<text text-anchor="middle" x="195" y="-235.5" font-family="Helvetica,sans-Serif" font-size="10.00">SceneDetails</text>
</a>
</g>
</g>
<!-- Node17&#45;&gt;Node44 -->
<g id="edge40" class="edge">
<title>Node17&#45;&gt;Node44</title>
<path fill="none" stroke="midnightblue" d="M50.17,-617.36C56.49,-547.29 81.2,-310.9 131,-257 137.98,-249.45 147.83,-244.86 157.69,-242.08"/>
<polygon fill="midnightblue" stroke="midnightblue" points="46.67,-617.19 49.28,-627.46 53.64,-617.8 46.67,-617.19"/>
</g>
</g>
</svg>
