<?xml version="1.0" encoding="UTF-8" standalone="no"?>
<!DOCTYPE svg PUBLIC "-//W3C//DTD SVG 1.1//EN"
 "http://www.w3.org/Graphics/SVG/1.1/DTD/svg11.dtd">
<!-- Generated by graphviz version 2.49.3 (20211027.1534)
 -->
<!-- Title: Interactable Pages: 1 -->
<svg width="193pt" height="84pt"
 viewBox="0.00 0.00 192.50 84.00" xmlns="http://www.w3.org/2000/svg" xmlns:xlink="http://www.w3.org/1999/xlink">
<g id="graph0" class="graph" transform="scale(1 1) rotate(0) translate(4 80)">
<title>Interactable</title>
<polygon fill="white" stroke="transparent" points="-4,4 -4,-80 188.5,-80 188.5,4 -4,4"/>
<!-- Node1 -->
<g id="node1" class="node">
<title>Node1</title>
<g id="a_node1"><a xlink:title=" ">
<polygon fill="#bfbfbf" stroke="black" points="55.5,-56.5 55.5,-75.5 123.5,-75.5 123.5,-56.5 55.5,-56.5"/>
<text text-anchor="middle" x="89.5" y="-63.5" font-family="Helvetica,sans-Serif" font-size="10.00">Interactable</text>
</a>
</g>
</g>
<!-- Node2 -->
<g id="node2" class="node">
<title>Node2</title>
<g id="a_node2"><a xlink:href="classNPCController.html" target="_top" xlink:title="The NPCController class manages all NPC&#45;related logic">
<polygon fill="white" stroke="black" points="0,-0.5 0,-19.5 79,-19.5 79,-0.5 0,-0.5"/>
<text text-anchor="middle" x="39.5" y="-7.5" font-family="Helvetica,sans-Serif" font-size="10.00">NPCController</text>
</a>
</g>
</g>
<!-- Node1&#45;&gt;Node2 -->
<g id="edge1" class="edge">
<title>Node1&#45;&gt;Node2</title>
<path fill="none" stroke="midnightblue" d="M74.42,-48.72C65.61,-39.2 54.83,-27.56 47.6,-19.75"/>
<polygon fill="midnightblue" stroke="midnightblue" points="71.88,-51.12 81.24,-56.08 77.02,-46.37 71.88,-51.12"/>
</g>
<!-- Node3 -->
<g id="node3" class="node">
<title>Node3</title>
<g id="a_node3"><a xlink:href="classTrainerController.html" target="_top" xlink:title="The TrainerController class manages all trainer&#45;related logic">
<polygon fill="white" stroke="black" points="96.5,-0.5 96.5,-19.5 184.5,-19.5 184.5,-0.5 96.5,-0.5"/>
<text text-anchor="middle" x="140.5" y="-7.5" font-family="Helvetica,sans-Serif" font-size="10.00">TrainerController</text>
</a>
</g>
</g>
<!-- Node1&#45;&gt;Node3 -->
<g id="edge2" class="edge">
<title>Node1&#45;&gt;Node3</title>
<path fill="none" stroke="midnightblue" d="M104.88,-48.72C113.87,-39.2 124.86,-27.56 132.24,-19.75"/>
<polygon fill="midnightblue" stroke="midnightblue" points="102.24,-46.41 97.92,-56.08 107.33,-51.22 102.24,-46.41"/>
</g>
</g>
</svg>
