<?xml version="1.0" encoding="UTF-8" standalone="no"?>
<!DOCTYPE svg PUBLIC "-//W3C//DTD SVG 1.1//EN"
 "http://www.w3.org/Graphics/SVG/1.1/DTD/svg11.dtd">
<!-- Generated by graphviz version 2.49.3 (20211027.1534)
 -->
<!-- Title: IPlayerTriggerable Pages: 1 -->
<svg width="318pt" height="84pt"
 viewBox="0.00 0.00 317.50 84.00" xmlns="http://www.w3.org/2000/svg" xmlns:xlink="http://www.w3.org/1999/xlink">
<g id="graph0" class="graph" transform="scale(1 1) rotate(0) translate(4 80)">
<title>IPlayerTriggerable</title>
<polygon fill="white" stroke="transparent" points="-4,4 -4,-80 313.5,-80 313.5,4 -4,4"/>
<!-- Node1 -->
<g id="node1" class="node">
<title>Node1</title>
<g id="a_node1"><a xlink:title=" ">
<polygon fill="#bfbfbf" stroke="black" points="119.5,-56.5 119.5,-75.5 214.5,-75.5 214.5,-56.5 119.5,-56.5"/>
<text text-anchor="middle" x="167" y="-63.5" font-family="Helvetica,sans-Serif" font-size="10.00">IPlayerTriggerable</text>
</a>
</g>
</g>
<!-- Node2 -->
<g id="node2" class="node">
<title>Node2</title>
<g id="a_node2"><a xlink:href="classLocationPortal.html" target="_top" xlink:title="The LocationPortal manages all logic for the location portals">
<polygon fill="white" stroke="black" points="0,-0.5 0,-19.5 80,-19.5 80,-0.5 0,-0.5"/>
<text text-anchor="middle" x="40" y="-7.5" font-family="Helvetica,sans-Serif" font-size="10.00">LocationPortal</text>
</a>
</g>
</g>
<!-- Node1&#45;&gt;Node2 -->
<g id="edge1" class="edge">
<title>Node1&#45;&gt;Node2</title>
<path fill="none" stroke="midnightblue" d="M137.61,-52.5C113.8,-42.38 80.89,-28.39 60.03,-19.52"/>
<polygon fill="midnightblue" stroke="midnightblue" points="136.3,-55.75 146.88,-56.44 139.04,-49.31 136.3,-55.75"/>
</g>
<!-- Node3 -->
<g id="node3" class="node">
<title>Node3</title>
<g id="a_node3"><a xlink:href="classLongGrass.html" target="_top" xlink:title=" ">
<polygon fill="white" stroke="black" points="98.5,-0.5 98.5,-19.5 163.5,-19.5 163.5,-0.5 98.5,-0.5"/>
<text text-anchor="middle" x="131" y="-7.5" font-family="Helvetica,sans-Serif" font-size="10.00">LongGrass</text>
</a>
</g>
</g>
<!-- Node1&#45;&gt;Node3 -->
<g id="edge2" class="edge">
<title>Node1&#45;&gt;Node3</title>
<path fill="none" stroke="midnightblue" d="M155.38,-47.57C149.18,-38.27 141.83,-27.25 136.83,-19.75"/>
<polygon fill="midnightblue" stroke="midnightblue" points="152.6,-49.7 161.06,-56.08 158.42,-45.82 152.6,-49.7"/>
</g>
<!-- Node4 -->
<g id="node4" class="node">
<title>Node4</title>
<g id="a_node4"><a xlink:href="classPortal.html" target="_top" xlink:title="The Portal class manages all portal&#45;related logic">
<polygon fill="white" stroke="black" points="182,-0.5 182,-19.5 224,-19.5 224,-0.5 182,-0.5"/>
<text text-anchor="middle" x="203" y="-7.5" font-family="Helvetica,sans-Serif" font-size="10.00">Portal</text>
</a>
</g>
</g>
<!-- Node1&#45;&gt;Node4 -->
<g id="edge3" class="edge">
<title>Node1&#45;&gt;Node4</title>
<path fill="none" stroke="midnightblue" d="M178.62,-47.57C184.82,-38.27 192.17,-27.25 197.17,-19.75"/>
<polygon fill="midnightblue" stroke="midnightblue" points="175.58,-45.82 172.94,-56.08 181.4,-49.7 175.58,-45.82"/>
</g>
<!-- Node5 -->
<g id="node5" class="node">
<title>Node5</title>
<g id="a_node5"><a xlink:href="classTrainerFOV.html" target="_top" xlink:title="The TrainerFOV class manages the FOV of all trainers">
<polygon fill="white" stroke="black" points="242.5,-0.5 242.5,-19.5 309.5,-19.5 309.5,-0.5 242.5,-0.5"/>
<text text-anchor="middle" x="276" y="-7.5" font-family="Helvetica,sans-Serif" font-size="10.00">TrainerFOV</text>
</a>
</g>
</g>
<!-- Node1&#45;&gt;Node5 -->
<g id="edge4" class="edge">
<title>Node1&#45;&gt;Node5</title>
<path fill="none" stroke="midnightblue" d="M193.52,-51.86C213.73,-41.85 240.99,-28.35 258.53,-19.65"/>
<polygon fill="midnightblue" stroke="midnightblue" points="191.92,-48.75 184.51,-56.32 195.03,-55.02 191.92,-48.75"/>
</g>
</g>
</svg>
