<?xml version="1.0" encoding="UTF-8" standalone="no"?>
<!DOCTYPE svg PUBLIC "-//W3C//DTD SVG 1.1//EN"
 "http://www.w3.org/Graphics/SVG/1.1/DTD/svg11.dtd">
<!-- Generated by graphviz version 12.2.1 (20241206.2353)
 -->
<!-- Title: ISavable Pages: 1 -->
<svg width="198pt" height="83pt"
 viewBox="0.00 0.00 197.75 82.50" xmlns="http://www.w3.org/2000/svg" xmlns:xlink="http://www.w3.org/1999/xlink">
<g id="graph0" class="graph" transform="scale(1 1) rotate(0) translate(4 78.5)">
<title>ISavable</title>
<!-- Node1 -->
<g id="Node000001" class="node">
<title>Node1</title>
<g id="a_Node000001"><a xlink:title=" ">
<polygon fill="#999999" stroke="#666666" points="121.25,-74.5 67,-74.5 67,-55.25 121.25,-55.25 121.25,-74.5"/>
<text text-anchor="middle" x="94.12" y="-61" font-family="Helvetica,sans-Serif" font-size="10.00">ISavable</text>
</a>
</g>
</g>
<!-- Node2 -->
<g id="Node000002" class="node">
<title>Node2</title>
<g id="a_Node000002"><a xlink:href="classPlayerController.html" target="_top" xlink:title="The PlayerController manages all player&#45;related logic.">
<polygon fill="white" stroke="#666666" points="84.25,-19.25 0,-19.25 0,0 84.25,0 84.25,-19.25"/>
<text text-anchor="middle" x="42.12" y="-5.75" font-family="Helvetica,sans-Serif" font-size="10.00">PlayerController</text>
</a>
</g>
</g>
<!-- Node1&#45;&gt;Node2 -->
<g id="edge1_Node000001_Node000002" class="edge">
<title>Node1&#45;&gt;Node2</title>
<g id="a_edge1_Node000001_Node000002"><a xlink:title=" ">
<path fill="none" stroke="#63b8ff" d="M77.72,-47.07C68.83,-37.98 58.21,-27.1 50.9,-19.61"/>
<polygon fill="#63b8ff" stroke="#63b8ff" points="74.99,-49.29 84.48,-54 80,-44.4 74.99,-49.29"/>
</a>
</g>
</g>
<!-- Node3 -->
<g id="Node000003" class="node">
<title>Node3</title>
<g id="a_Node000003"><a xlink:href="classTrainerController.html" target="_top" xlink:title="The TrainerController class manages all trainer&#45;related logic.">
<polygon fill="white" stroke="#666666" points="189.75,-19.25 102.5,-19.25 102.5,0 189.75,0 189.75,-19.25"/>
<text text-anchor="middle" x="146.12" y="-5.75" font-family="Helvetica,sans-Serif" font-size="10.00">TrainerController</text>
</a>
</g>
</g>
<!-- Node1&#45;&gt;Node3 -->
<g id="edge2_Node000001_Node000003" class="edge">
<title>Node1&#45;&gt;Node3</title>
<g id="a_edge2_Node000001_Node000003"><a xlink:title=" ">
<path fill="none" stroke="#63b8ff" d="M110.53,-47.07C119.42,-37.98 130.04,-27.1 137.35,-19.61"/>
<polygon fill="#63b8ff" stroke="#63b8ff" points="108.25,-44.4 103.77,-54 113.26,-49.29 108.25,-44.4"/>
</a>
</g>
</g>
</g>
</svg>
